<?xml version="1.0" encoding="UTF-8" standalone="no"?><!DOCTYPE svg PUBLIC "-//W3C//DTD SVG 1.1//EN" "http://www.w3.org/Graphics/SVG/1.1/DTD/svg11.dtd"><svg width="100%" height="100%" viewBox="0 0 946 1567" version="1.1" xmlns="http://www.w3.org/2000/svg" xmlns:xlink="http://www.w3.org/1999/xlink" xml:space="preserve" xmlns:serif="http://www.serif.com/" style="fill-rule:evenodd;clip-rule:evenodd;"><g><rect x="150.281" y="45.833" width="655.103" height="313.607" style="fill:none;stroke:#000;stroke-width:6.25px;"/><path d="M763.717,45.833l-0,38.737l-41.667,41.667l-571.769,0" style="fill:none;fill-rule:nonzero;stroke:#000;stroke-width:6.25px;"/><text id="req" x="162.781px" y="104.146px" style="font-family:'ArialMT', 'Arial', sans-serif;font-size:58.333px;">Requirement Phase</text><rect x="45.833" y="404.448" width="855.255" height="342.773" style="fill:none;stroke:#000;stroke-width:6.25px;"/><path d="M868.164,404.448l0,38.737l-41.666,41.666l-780.665,0" style="fill:none;fill-rule:nonzero;stroke:#000;stroke-width:6.25px;"/><text id="sol" x="58.333px" y="462.76px" style="font-family:'ArialMT', 'Arial', sans-serif;font-size:58.333px;">Solution Exploration Phase</text><rect x="143.459" y="792.228" width="668.746" height="342.773" style="fill:none;stroke:#000;stroke-width:6.25px;"/><path d="M770.538,792.228l0,38.737l-41.666,41.667l-585.413,-0" style="fill:none;fill-rule:nonzero;stroke:#000;stroke-width:6.25px;"/><text id="dev" x="155.959px" y="850.541px" style="font-family:'ArialMT', 'Arial', sans-serif;font-size:58.333px;">Development Phase</text><rect x="57.925" y="1180.01" width="831.073" height="342.773" style="fill:none;stroke:#000;stroke-width:6.25px;"/><path d="M856.073,1180.01l-0,38.737l-41.667,41.667l-756.481,-0" style="fill:none;fill-rule:nonzero;stroke:#000;stroke-width:6.25px;"/><text id="int" x="70.425px" y="1238.32px" style="font-family:'ArialMT', 'Arial', sans-serif;font-size:58.333px;">Product Integration Phase</text><path d="M477.832,242.138l0,1089.11" style="fill:none;fill-rule:nonzero;stroke:#181818;stroke-width:4.17px;"/><path d="M461.165,1289.58l16.667,41.667l16.667,-41.667l-16.667,16.667l-16.667,-16.667Z" style="fill:#181818;fill-rule:nonzero;stroke:#181818;stroke-width:4.17px;"/></g></svg>