<?xml version="1.0" encoding="UTF-8" standalone="no"?><!DOCTYPE svg PUBLIC "-//W3C//DTD SVG 1.1//EN" "http://www.w3.org/Graphics/SVG/1.1/DTD/svg11.dtd"><svg width="100%" height="100%" viewBox="0 0 2546 7105" version="1.1" xmlns="http://www.w3.org/2000/svg" xmlns:xlink="http://www.w3.org/1999/xlink" xml:space="preserve" xmlns:serif="http://www.serif.com/" style="fill-rule:evenodd;clip-rule:evenodd;"><g><rect x="45.833" y="45.833" width="2455.9" height="5849.52" style="fill:none;stroke:#000;stroke-width:6.25px;"/><path d="M659.269,45.833l0,38.737l-41.666,41.667l-571.77,0" style="fill:none;fill-rule:nonzero;stroke:#000;stroke-width:6.25px;"/><text id="req" x="58.333px" y="104.146px" style="font-family:'ArialMT', 'Arial', sans-serif;font-size:58.333px;">Requirement Phase</text><path d="M1724.7,219.987c0,-28.745 -23.338,-52.083 -52.083,-52.083l-754.606,-0c-28.746,-0 -52.084,23.338 -52.084,52.083l0,37.37c0,28.746 23.338,52.083 52.084,52.083l754.606,0c28.745,0 52.083,-23.337 52.083,-52.083l0,-37.37Z" style="fill:#f1f1f1;stroke:#181818;stroke-width:2.08px;"/><text x="907.598px" y="255.981px" style="font-family:'ArialMT', 'Arial', sans-serif;font-size:50px;">Clariﬁcation of problem or task</text><path d="M1768.97,444.857c-0,-28.746 -23.338,-52.084 -52.084,-52.084l-843.131,0c-28.746,0 -52.084,23.338 -52.084,52.084l0,37.37c0,28.745 23.338,52.083 52.084,52.083l843.131,0c28.746,0 52.084,-23.338 52.084,-52.083l-0,-37.37Z" style="fill:#f1f1f1;stroke:#181818;stroke-width:2.08px;"/><text x="863.335px" y="480.851px" style="font-family:'ArialMT', 'Arial', sans-serif;font-size:50px;">Deﬁne Objectives &amp; Requirements</text><rect x="87.5" y="575.977" width="2372.57" height="5044.51" style="fill:none;stroke:#000;stroke-width:6.25px;"/><path d="M777.157,575.977l-0,38.737l-41.667,41.666l-647.99,0" style="fill:none;fill-rule:nonzero;stroke:#000;stroke-width:6.25px;"/><text x="100px" y="634.29px" style="font-family:'ArialMT', 'Arial', sans-serif;font-size:58.333px;">CCS Selection Process</text><rect x="129.167" y="698.047" width="2289.23" height="3896.47" style="fill:none;stroke:#000;stroke-width:6.25px;"/><path d="M837.736,698.047l-0,38.737l-41.667,41.666l-666.902,0" style="fill:none;fill-rule:nonzero;stroke:#000;stroke-width:6.25px;"/><text id="_01_1_init" serif:id="01_1_init" x="141.667px" y="756.36px" style="font-family:'ArialMT', 'Arial', sans-serif;font-size:58.333px;">CCS Initial <tspan x="430.2px 469.108px " y="756.36px 756.36px ">As</tspan>sessment</text><path d="M1626.13,1103.04c0,-28.746 -23.338,-52.084 -52.083,-52.084l-557.463,0c-28.745,0 -52.083,23.338 -52.083,52.084l-0,37.37c-0,28.745 23.338,52.083 52.083,52.083l557.463,0c28.745,0 52.083,-23.338 52.083,-52.083l0,-37.37Z" style="fill:#f1f1f1;stroke:#181818;stroke-width:2.08px;"/><text x="1006.17px" y="1139.04px" style="font-family:'ArialMT', 'Arial', sans-serif;font-size:50px;">ST<tspan x="1069.16px 1108.05px 1140.5px 1154.39px " y="1139.04px 1139.04px 1139.04px 1139.04px ">OP -</tspan> No CCS feasible</text><circle cx="1295.32" cy="1357.14" r="45.833" style="fill:none;stroke:#222;stroke-width:4.17px;"/><circle cx="1295.32" cy="1357.14" r="25" style="fill:#222;stroke:#222;stroke-width:4.17px;"/><path d="M695.221,849.284l1200.19,-0l50,50l-50,50l-1200.19,-0l-50,-50l50,-50Z" style="fill:#f1f1f1;fill-rule:nonzero;stroke:#181818;stroke-width:2.08px;"/><text x="1311.98px" y="991.828px" style="font-family:'ArialMT', 'Arial', sans-serif;font-size:45.833px;">Y<tspan x="1338.35px 1363.84px " y="991.828px 991.828px ">es</tspan></text><text x="695.221px" y="915.151px" style="font-family:'ArialMT', 'Arial', sans-serif;font-size:45.833px;">Is the product continuously carried or worn by user?</text><text x="1945.41px" y="888.475px" style="font-family:'ArialMT', 'Arial', sans-serif;font-size:45.833px;">No</text><path d="M1626.13,1831.74c0,-28.745 -23.338,-52.083 -52.083,-52.083l-557.463,0c-28.745,0 -52.083,23.338 -52.083,52.083l-0,37.37c-0,28.746 23.338,52.084 52.083,52.084l557.463,-0c28.745,-0 52.083,-23.338 52.083,-52.084l0,-37.37Z" style="fill:#f1f1f1;stroke:#181818;stroke-width:2.08px;"/><text x="1006.17px" y="1867.73px" style="font-family:'ArialMT', 'Arial', sans-serif;font-size:50px;">ST<tspan x="1069.16px 1108.05px 1140.5px 1154.39px " y="1867.73px 1867.73px 1867.73px 1867.73px ">OP -</tspan> No CCS feasible</text><circle cx="1295.32" cy="2085.84" r="45.833" style="fill:none;stroke:#222;stroke-width:4.17px;"/><circle cx="1295.32" cy="2085.84" r="25" style="fill:#222;stroke:#222;stroke-width:4.17px;"/><path d="M351.404,1577.98l1887.83,0l50,50l-50,50l-1887.83,0l-50,-50l50,-50Z" style="fill:#f1f1f1;fill-rule:nonzero;stroke:#181818;stroke-width:2.08px;"/><text x="1311.98px" y="1720.52px" style="font-family:'ArialMT', 'Arial', sans-serif;font-size:45.833px;">No</text><text x="351.404px" y="1643.85px" style="font-family:'ArialMT', 'Arial', sans-serif;font-size:45.833px;">Does the product design allow for additional volume to integrate CCS technology?</text><text x="2289.23px" y="1617.17px" style="font-family:'ArialMT', 'Arial', sans-serif;font-size:45.833px;">Y<tspan x="2315.59px 2341.09px " y="1617.17px 1617.17px ">es</tspan></text><path d="M1736.25,2560.43c-0,-28.746 -23.338,-52.083 -52.084,-52.083l-777.701,-0c-28.746,-0 -52.084,23.337 -52.084,52.083l0,37.37c0,28.745 23.338,52.083 52.084,52.083l777.701,0c28.746,0 52.084,-23.338 52.084,-52.083l-0,-37.37Z" style="fill:#f1f1f1;stroke:#181818;stroke-width:2.08px;"/><text x="896.05px" y="2596.43px" style="font-family:'ArialMT', 'Arial', sans-serif;font-size:50px;">Exclude Combustion-based CCS</text><path d="M736.523,2306.67l1117.59,0l50,50l-50,50l-1117.59,0l-50,-50l50,-50Z" style="fill:#f1f1f1;fill-rule:nonzero;stroke:#181818;stroke-width:2.08px;"/><text x="1311.98px" y="2449.22px" style="font-family:'ArialMT', 'Arial', sans-serif;font-size:45.833px;">No</text><text x="736.523px" y="2372.54px" style="font-family:'ArialMT', 'Arial', sans-serif;font-size:45.833px;">Does the product involve a combustion process?</text><text x="1904.11px" y="2345.86px" style="font-family:'ArialMT', 'Arial', sans-serif;font-size:45.833px;">Y<tspan x="1930.48px 1955.97px " y="2345.86px 2345.86px ">es</tspan></text><path d="M1295.32,2733.22l50,50l-50,50l-50,-50l50,-50Z" style="fill:#f1f1f1;fill-rule:nonzero;stroke:#181818;stroke-width:2.08px;"/><path d="M808.439,2916.55l973.757,-0l50,50l-50,50l-973.757,-0l-50,-50l50,-50Z" style="fill:#f1f1f1;fill-rule:nonzero;stroke:#181818;stroke-width:2.08px;"/><text x="808.439px" y="2982.42px" style="font-family:'ArialMT', 'Arial', sans-serif;font-size:45.833px;">Is a constant humidity level maintainable?</text><text x="678.365px" y="2955.74px" style="font-family:'ArialMT', 'Arial', sans-serif;font-size:45.833px;">Y<tspan x="704.728px 730.218px " y="2955.74px 2955.74px ">es</tspan></text><text x="1832.2px" y="2955.74px" style="font-family:'ArialMT', 'Arial', sans-serif;font-size:45.833px;">No</text><path d="M1043.95,3311.98c0,-28.745 -23.338,-52.083 -52.083,-52.083l-550.187,-0c-28.746,-0 -52.084,23.338 -52.084,52.083l0,37.37c0,28.746 23.338,52.084 52.084,52.084l550.187,-0c28.745,-0 52.083,-23.338 52.083,-52.084l0,-37.37Z" style="fill:#f1f1f1;stroke:#181818;stroke-width:2.08px;"/><text x="431.262px" y="3347.97px" style="font-family:'ArialMT', 'Arial', sans-serif;font-size:50px;">Exclude Biological CCS</text><path d="M229.167,3058.22l975.211,-0l50,50l-50,50l-975.211,-0l-50,-50l50,-50Z" style="fill:#f1f1f1;fill-rule:nonzero;stroke:#181818;stroke-width:2.08px;"/><text x="733.439px" y="3200.76px" style="font-family:'ArialMT', 'Arial', sans-serif;font-size:45.833px;">No</text><text x="229.167px" y="3124.09px" style="font-family:'ArialMT', 'Arial', sans-serif;font-size:45.833px;">Operating <tspan x="442.354px 465.271px 490.761px " y="3124.09px 3124.09px 3124.09px ">Tem</tspan>p. in Range of 20°C - 50°C?</text><text x="1254.38px" y="3097.41px" style="font-family:'ArialMT', 'Arial', sans-serif;font-size:45.833px;">Y<tspan x="1280.74px 1306.23px " y="3097.41px 3097.41px ">es</tspan></text><path d="M716.773,3484.77l50,50l-50,50l-50,-50l50,-50Z" style="fill:#f1f1f1;fill-rule:nonzero;stroke:#181818;stroke-width:2.08px;"/><path d="M2201.04,3110.3c-0,-28.746 -23.338,-52.083 -52.084,-52.083l-550.187,-0c-28.745,-0 -52.083,23.337 -52.083,52.083l-0,37.37c-0,28.745 23.338,52.083 52.083,52.083l550.187,0c28.746,0 52.084,-23.338 52.084,-52.083l-0,-37.37Z" style="fill:#f1f1f1;stroke:#181818;stroke-width:2.08px;"/><text x="1588.35px" y="3146.3px" style="font-family:'ArialMT', 'Arial', sans-serif;font-size:50px;">Exclude Biological CCS</text><path d="M1295.32,3609.77l50,50l-50,50l-50,-50l50,-50Z" style="fill:#f1f1f1;fill-rule:nonzero;stroke:#181818;stroke-width:2.08px;"/><path d="M1621.05,4046.86c0,-28.746 -23.338,-52.084 -52.083,-52.084l-547.306,0c-28.746,0 -52.084,23.338 -52.084,52.084l0,37.37c0,28.745 23.338,52.083 52.084,52.083l547.306,0c28.745,0 52.083,-23.338 52.083,-52.083l0,-37.37Z" style="fill:#f1f1f1;stroke:#181818;stroke-width:2.08px;"/><text x="1011.25px" y="4082.85px" style="font-family:'ArialMT', 'Arial', sans-serif;font-size:50px;">Exclude Chemical DAC</text><path d="M690.723,3793.1l1209.19,0l50,50l-50,50l-1209.19,0l-49.999,-50l50,-50Z" style="fill:#f1f1f1;fill-rule:nonzero;stroke:#181818;stroke-width:2.08px;"/><text x="1311.98px" y="3935.64px" style="font-family:'ArialMT', 'Arial', sans-serif;font-size:45.833px;">Y<tspan x="1338.35px 1363.84px " y="3935.64px 3935.64px ">es</tspan></text><text x="690.723px" y="3858.97px" style="font-family:'ArialMT', 'Arial', sans-serif;font-size:45.833px;">Are there strict safety requirements for the product?</text><text x="1949.91px" y="3832.29px" style="font-family:'ArialMT', 'Arial', sans-serif;font-size:45.833px;">No</text><path d="M1295.32,4219.65l50,50l-50,50l-50,-50l50,-50Z" style="fill:#f1f1f1;fill-rule:nonzero;stroke:#181818;stroke-width:2.08px;"/><path d="M1747.18,4455.06c0,-28.746 -23.338,-52.084 -52.083,-52.084l-799.553,0c-28.745,0 -52.083,23.338 -52.083,52.084l-0,37.37c-0,28.745 23.338,52.083 52.083,52.083l799.553,0c28.745,0 52.083,-23.338 52.083,-52.083l0,-37.37Z" style="fill:#f1f1f1;stroke:#181818;stroke-width:2.08px;"/><text x="885.125px" y="4491.06px" style="font-family:'ArialMT', 'Arial', sans-serif;font-size:50px;">Filtered List of CCS <tspan x="1331.59px 1356.59px 1384.39px " y="4491.06px 4491.06px 4491.06px ">Tec</tspan>hnologies</text><rect x="1035.76" y="4639.52" width="519.124" height="130.404" style="fill:none;stroke:#000;stroke-width:6.25px;"/><path d="M1513.21,4639.52l-0,38.736l-41.667,41.667l-435.791,-0" style="fill:none;fill-rule:nonzero;stroke:#000;stroke-width:6.25px;"/><text id="_01_2_pcf" serif:id="01_2_pcf" x="1048.26px" y="4697.84px" style="font-family:'ArialMT', 'Arial', sans-serif;font-size:58.333px;">PCF Evaluation</text><rect x="852.894" y="4814.93" width="884.847" height="130.404" style="fill:none;stroke:#000;stroke-width:6.25px;"/><path d="M1696.08,4814.93l-0,38.737l-41.667,41.667l-801.514,0" style="fill:none;fill-rule:nonzero;stroke:#000;stroke-width:6.25px;"/><text id="_01_3_params" serif:id="01_3_params" x="865.394px" y="4873.25px" style="font-family:'ArialMT', 'Arial', sans-serif;font-size:58.333px;">Determine CCS Parameters</text><rect x="908.237" y="4990.34" width="774.162" height="130.404" style="fill:none;stroke:#000;stroke-width:6.25px;"/><path d="M1640.73,4990.34l-0,38.737l-41.667,41.667l-690.828,-0" style="fill:none;fill-rule:nonzero;stroke:#000;stroke-width:6.25px;"/><g id="_01_4_neutrality" serif:id="01_4_neutrality" transform="matrix(4.16667,0,0,4.16667,920.737,5048.66)"><text x="0px" y="0px" style="font-family:'ArialMT', 'Arial', sans-serif;font-size:14px;">Evaluate CO</text><text x="79.372px" y="0px" style="font-family:'MicrosoftSansSerif', 'Microsoft Sans Serif', sans-serif;font-size:14px;">₂</text><text x="87.924px" y="0px" style="font-family:'ArialMT', 'Arial', sans-serif;font-size:14px;">Neutrality</text></g><path d="M1497.38,5256.16c-0,-28.746 -23.338,-52.084 -52.084,-52.084l-299.967,0c-28.746,0 -52.084,23.338 -52.084,52.084l0,37.37c0,28.745 23.338,52.083 52.084,52.083l299.967,-0c28.746,-0 52.084,-23.338 52.084,-52.083l-0,-37.37Z" style="fill:#f1f1f1;stroke:#181818;stroke-width:2.08px;"/><text x="1134.92px" y="5292.16px" style="font-family:'ArialMT', 'Arial', sans-serif;font-size:50px;">CCS Ranking</text><path d="M1510.92,5481.03c0,-28.745 -23.338,-52.083 -52.083,-52.083l-327.043,-0c-28.745,-0 -52.083,23.338 -52.083,52.083l-0,37.37c-0,28.746 23.338,52.084 52.083,52.084l327.043,-0c28.745,-0 52.083,-23.338 52.083,-52.084l0,-37.37Z" style="fill:#f1f1f1;stroke:#181818;stroke-width:2.08px;"/><text x="1121.38px" y="5517.03px" style="font-family:'ArialMT', 'Arial', sans-serif;font-size:50px;">CCS Selection</text><path d="M1694.64,5755.9c-0,-28.745 -23.338,-52.083 -52.083,-52.083l-694.475,-0c-28.745,-0 -52.083,23.338 -52.083,52.083l0,37.37c0,28.746 23.338,52.083 52.083,52.083l694.475,0.001c28.745,-0.001 52.083,-23.338 52.083,-52.084l-0,-37.37Z" style="fill:#f1f1f1;stroke:#181818;stroke-width:2.08px;"/><text x="937.664px" y="5791.9px" style="font-family:'ArialMT', 'Arial', sans-serif;font-size:50px;">Update List of Requirements</text><rect x="863.319" y="5940.36" width="863.997" height="342.773" style="fill:none;stroke:#000;stroke-width:6.25px;"/><path d="M1685.65,5940.36l-0,38.737l-41.667,41.666l-780.664,0" style="fill:none;fill-rule:nonzero;stroke:#000;stroke-width:6.25px;"/><text id="sol" x="875.819px" y="5998.68px" style="font-family:'ArialMT', 'Arial', sans-serif;font-size:58.333px;">Solution Exploration Phase</text><rect x="960.945" y="6328.15" width="668.746" height="342.773" style="fill:none;stroke:#000;stroke-width:6.25px;"/><path d="M1588.02,6328.15l-0,38.738l-41.667,41.666l-585.412,0" style="fill:none;fill-rule:nonzero;stroke:#000;stroke-width:6.25px;"/><text id="dev" x="973.445px" y="6386.46px" style="font-family:'ArialMT', 'Arial', sans-serif;font-size:58.333px;">Development Phase</text><rect x="875.41" y="6715.93" width="839.815" height="342.773" style="fill:none;stroke:#000;stroke-width:6.25px;"/><path d="M1673.56,6715.93l-0,38.737l-41.667,41.667l-756.482,-0" style="fill:none;fill-rule:nonzero;stroke:#000;stroke-width:6.25px;"/><text id="int" x="887.91px" y="6774.24px" style="font-family:'ArialMT', 'Arial', sans-serif;font-size:58.333px;">Product Integration Phase</text><path d="M1295.32,309.44l-0,83.333" style="fill:none;fill-rule:nonzero;stroke:#181818;stroke-width:4.17px;"/><path d="M1278.65,351.107l16.667,41.666l16.666,-41.666l-16.666,16.666l-16.667,-16.666Z" style="fill:#181818;fill-rule:nonzero;stroke:#181818;stroke-width:4.17px;"/><path d="M1295.32,1192.5l-0,118.815" style="fill:none;fill-rule:nonzero;stroke:#181818;stroke-width:4.17px;"/><path d="M1278.65,1269.64l16.667,41.667l16.666,-41.667l-16.666,16.667l-16.667,-16.667Z" style="fill:#181818;fill-rule:nonzero;stroke:#181818;stroke-width:4.17px;"/><path d="M1295.32,949.284l-0,101.676" style="fill:none;fill-rule:nonzero;stroke:#181818;stroke-width:4.17px;"/><path d="M1278.65,1009.29l16.667,41.666l16.666,-41.666l-16.666,16.666l-16.667,-16.666Z" style="fill:#181818;fill-rule:nonzero;stroke:#181818;stroke-width:4.17px;"/><path d="M1945.41,899.284l50,-0" style="fill:none;fill-rule:nonzero;stroke:#181818;stroke-width:4.17px;"/><path d="M1978.75,1186.31l16.666,41.666l16.667,-41.666l-16.667,16.666l-16.666,-16.666Z" style="fill:#181818;fill-rule:nonzero;stroke:#181818;stroke-width:4.17px;"/><path d="M1995.41,899.284l0,595.361" style="fill:none;fill-rule:nonzero;stroke:#181818;stroke-width:4.17px;"/><path d="M1995.41,1494.64l-700.096,0" style="fill:none;fill-rule:nonzero;stroke:#181818;stroke-width:4.17px;"/><path d="M1295.32,1494.64l-0,83.333" style="fill:none;fill-rule:nonzero;stroke:#181818;stroke-width:4.17px;"/><path d="M1278.65,1536.31l16.667,41.666l16.666,-41.666l-16.666,16.666l-16.667,-16.666Z" style="fill:#181818;fill-rule:nonzero;stroke:#181818;stroke-width:4.17px;"/><path d="M1295.32,1921.19l-0,118.816" style="fill:none;fill-rule:nonzero;stroke:#181818;stroke-width:4.17px;"/><path d="M1278.65,1998.34l16.667,41.667l16.666,-41.667l-16.666,16.667l-16.667,-16.667Z" style="fill:#181818;fill-rule:nonzero;stroke:#181818;stroke-width:4.17px;"/><path d="M1295.32,1677.98l-0,101.677" style="fill:none;fill-rule:nonzero;stroke:#181818;stroke-width:4.17px;"/><path d="M1278.65,1737.99l16.667,41.667l16.666,-41.667l-16.666,16.667l-16.667,-16.667Z" style="fill:#181818;fill-rule:nonzero;stroke:#181818;stroke-width:4.17px;"/><path d="M2289.23,1627.98l50,0" style="fill:none;fill-rule:nonzero;stroke:#181818;stroke-width:4.17px;"/><path d="M2322.57,1915.01l16.666,41.666l16.667,-41.666l-16.667,16.666l-16.666,-16.666Z" style="fill:#181818;fill-rule:nonzero;stroke:#181818;stroke-width:4.17px;"/><path d="M2339.23,1627.98l0,595.362" style="fill:none;fill-rule:nonzero;stroke:#181818;stroke-width:4.17px;"/><path d="M2339.23,2223.34l-1043.91,0" style="fill:none;fill-rule:nonzero;stroke:#181818;stroke-width:4.17px;"/><path d="M1295.32,2223.34l-0,83.333" style="fill:none;fill-rule:nonzero;stroke:#181818;stroke-width:4.17px;"/><path d="M1278.65,2265.01l16.667,41.666l16.666,-41.666l-16.666,16.666l-16.667,-16.666Z" style="fill:#181818;fill-rule:nonzero;stroke:#181818;stroke-width:4.17px;"/><path d="M1295.32,2406.67l-0,101.677" style="fill:none;fill-rule:nonzero;stroke:#181818;stroke-width:4.17px;"/><path d="M1278.65,2466.68l16.667,41.667l16.666,-41.667l-16.666,16.667l-16.667,-16.667Z" style="fill:#181818;fill-rule:nonzero;stroke:#181818;stroke-width:4.17px;"/><path d="M1904.11,2356.67l50,0" style="fill:none;fill-rule:nonzero;stroke:#181818;stroke-width:4.17px;"/><path d="M1937.45,2537.45l16.667,41.667l16.667,-41.667l-16.667,16.667l-16.667,-16.667Z" style="fill:#181818;fill-rule:nonzero;stroke:#181818;stroke-width:4.17px;"/><path d="M1954.11,2356.67l-0,426.547" style="fill:none;fill-rule:nonzero;stroke:#181818;stroke-width:4.17px;"/><path d="M1954.11,2783.22l-608.795,-0" style="fill:none;fill-rule:nonzero;stroke:#181818;stroke-width:4.17px;"/><path d="M1386.98,2766.55l-41.666,16.667l41.666,16.666l-16.666,-16.666l16.666,-16.667Z" style="fill:#181818;fill-rule:nonzero;stroke:#181818;stroke-width:4.17px;"/><path d="M1295.32,2649.89l-0,83.334" style="fill:none;fill-rule:nonzero;stroke:#181818;stroke-width:4.17px;"/><path d="M1278.65,2691.55l16.667,41.667l16.666,-41.667l-16.666,16.667l-16.667,-16.667Z" style="fill:#181818;fill-rule:nonzero;stroke:#181818;stroke-width:4.17px;"/><path d="M716.773,3158.22l-0,101.676" style="fill:none;fill-rule:nonzero;stroke:#181818;stroke-width:4.17px;"/><path d="M700.106,3218.23l16.667,41.667l16.666,-41.667l-16.667,16.667l-16.666,-16.667Z" style="fill:#181818;fill-rule:nonzero;stroke:#181818;stroke-width:4.17px;"/><path d="M1254.38,3108.22l50,-0" style="fill:none;fill-rule:nonzero;stroke:#181818;stroke-width:4.17px;"/><path d="M1287.71,3289l16.666,41.666l16.667,-41.666l-16.667,16.666l-16.666,-16.666Z" style="fill:#181818;fill-rule:nonzero;stroke:#181818;stroke-width:4.17px;"/><path d="M1304.38,3108.22l0,426.546" style="fill:none;fill-rule:nonzero;stroke:#181818;stroke-width:4.17px;"/><path d="M1304.38,3534.77l-537.605,-0" style="fill:none;fill-rule:nonzero;stroke:#181818;stroke-width:4.17px;"/><path d="M808.439,3518.1l-41.666,16.667l41.666,16.667l-16.666,-16.667l16.666,-16.667Z" style="fill:#181818;fill-rule:nonzero;stroke:#181818;stroke-width:4.17px;"/><path d="M716.773,3401.43l-0,83.333" style="fill:none;fill-rule:nonzero;stroke:#181818;stroke-width:4.17px;"/><path d="M700.106,3443.1l16.667,41.667l16.666,-41.667l-16.667,16.667l-16.666,-16.667Z" style="fill:#181818;fill-rule:nonzero;stroke:#181818;stroke-width:4.17px;"/><path d="M758.439,2966.55l-41.666,-0" style="fill:none;fill-rule:nonzero;stroke:#181818;stroke-width:4.17px;"/><path d="M716.773,2966.55l-0,91.667" style="fill:none;fill-rule:nonzero;stroke:#181818;stroke-width:4.17px;"/><path d="M700.106,3016.55l16.667,41.667l16.666,-41.667l-16.667,16.667l-16.666,-16.667Z" style="fill:#181818;fill-rule:nonzero;stroke:#181818;stroke-width:4.17px;"/><path d="M1832.2,2966.55l41.667,-0" style="fill:none;fill-rule:nonzero;stroke:#181818;stroke-width:4.17px;"/><path d="M1873.86,2966.55l-0,91.667" style="fill:none;fill-rule:nonzero;stroke:#181818;stroke-width:4.17px;"/><path d="M1857.2,3016.55l16.667,41.667l16.667,-41.667l-16.667,16.667l-16.667,-16.667Z" style="fill:#181818;fill-rule:nonzero;stroke:#181818;stroke-width:4.17px;"/><path d="M716.773,3584.77l-0,75" style="fill:none;fill-rule:nonzero;stroke:#181818;stroke-width:4.17px;"/><path d="M716.773,3659.77l528.545,-0" style="fill:none;fill-rule:nonzero;stroke:#181818;stroke-width:4.17px;"/><path d="M1203.65,3643.1l41.667,16.667l-41.667,16.667l16.667,-16.667l-16.667,-16.667Z" style="fill:#181818;fill-rule:nonzero;stroke:#181818;stroke-width:4.17px;"/><path d="M1873.86,3199.76l-0,460.01" style="fill:none;fill-rule:nonzero;stroke:#181818;stroke-width:4.17px;"/><path d="M1873.86,3659.77l-528.545,-0" style="fill:none;fill-rule:nonzero;stroke:#181818;stroke-width:4.17px;"/><path d="M1386.98,3643.1l-41.666,16.667l41.666,16.667l-16.666,-16.667l16.666,-16.667Z" style="fill:#181818;fill-rule:nonzero;stroke:#181818;stroke-width:4.17px;"/><path d="M1295.32,2833.22l-0,83.333" style="fill:none;fill-rule:nonzero;stroke:#181818;stroke-width:4.17px;"/><path d="M1278.65,2874.89l16.667,41.667l16.666,-41.667l-16.666,16.667l-16.667,-16.667Z" style="fill:#181818;fill-rule:nonzero;stroke:#181818;stroke-width:4.17px;"/><path d="M1295.32,3893.1l-0,101.676" style="fill:none;fill-rule:nonzero;stroke:#181818;stroke-width:4.17px;"/><path d="M1278.65,3953.11l16.667,41.666l16.666,-41.666l-16.666,16.666l-16.667,-16.666Z" style="fill:#181818;fill-rule:nonzero;stroke:#181818;stroke-width:4.17px;"/><path d="M1949.91,3843.1l50,0" style="fill:none;fill-rule:nonzero;stroke:#181818;stroke-width:4.17px;"/><path d="M1983.25,4023.88l16.667,41.667l16.666,-41.667l-16.666,16.667l-16.667,-16.667Z" style="fill:#181818;fill-rule:nonzero;stroke:#181818;stroke-width:4.17px;"/><path d="M1999.91,3843.1l-0,426.546" style="fill:none;fill-rule:nonzero;stroke:#181818;stroke-width:4.17px;"/><path d="M1999.91,4269.65l-654.595,0" style="fill:none;fill-rule:nonzero;stroke:#181818;stroke-width:4.17px;"/><path d="M1386.98,4252.98l-41.666,16.667l41.666,16.667l-16.666,-16.667l16.666,-16.667Z" style="fill:#181818;fill-rule:nonzero;stroke:#181818;stroke-width:4.17px;"/><path d="M1295.32,4136.31l-0,83.333" style="fill:none;fill-rule:nonzero;stroke:#181818;stroke-width:4.17px;"/><path d="M1278.65,4177.98l16.667,41.667l16.666,-41.667l-16.666,16.667l-16.667,-16.667Z" style="fill:#181818;fill-rule:nonzero;stroke:#181818;stroke-width:4.17px;"/><path d="M1295.32,3709.77l-0,83.333" style="fill:none;fill-rule:nonzero;stroke:#181818;stroke-width:4.17px;"/><path d="M1278.65,3751.43l16.667,41.666l16.666,-41.666l-16.666,16.666l-16.667,-16.666Z" style="fill:#181818;fill-rule:nonzero;stroke:#181818;stroke-width:4.17px;"/><path d="M1295.32,4319.65l-0,83.333" style="fill:none;fill-rule:nonzero;stroke:#181818;stroke-width:4.17px;"/><path d="M1278.65,4361.31l16.667,41.666l16.666,-41.666l-16.666,16.666l-16.667,-16.666Z" style="fill:#181818;fill-rule:nonzero;stroke:#181818;stroke-width:4.17px;"/><path d="M1295.32,4544.52l-0,659.566" style="fill:none;fill-rule:nonzero;stroke:#181818;stroke-width:4.17px;"/><path d="M1278.65,5162.41l16.667,41.666l16.666,-41.666l-16.666,16.666l-16.667,-16.666Z" style="fill:#181818;fill-rule:nonzero;stroke:#181818;stroke-width:4.17px;"/><path d="M1295.32,5345.62l-0,83.333" style="fill:none;fill-rule:nonzero;stroke:#181818;stroke-width:4.17px;"/><path d="M1278.65,5387.28l16.667,41.667l16.666,-41.667l-16.666,16.667l-16.667,-16.667Z" style="fill:#181818;fill-rule:nonzero;stroke:#181818;stroke-width:4.17px;"/><path d="M1295.32,534.31l-0,314.974" style="fill:none;fill-rule:nonzero;stroke:#181818;stroke-width:4.17px;"/><path d="M1278.65,807.617l16.667,41.667l16.666,-41.667l-16.666,16.667l-16.667,-16.667Z" style="fill:#181818;fill-rule:nonzero;stroke:#181818;stroke-width:4.17px;"/><path d="M1295.32,5570.49l-0,133.333" style="fill:none;fill-rule:nonzero;stroke:#181818;stroke-width:4.17px;"/><path d="M1278.65,5662.15l16.667,41.667l16.666,-41.667l-16.666,16.667l-16.667,-16.667Z" style="fill:#181818;fill-rule:nonzero;stroke:#181818;stroke-width:4.17px;"/><path d="M1295.32,5845.48l-0,1021.68" style="fill:none;fill-rule:nonzero;stroke:#181818;stroke-width:4.17px;"/><path d="M1278.65,6825.5l16.667,41.667l16.666,-41.667l-16.666,16.667l-16.667,-16.667Z" style="fill:#181818;fill-rule:nonzero;stroke:#181818;stroke-width:4.17px;"/></g></svg>