<?xml version="1.0" encoding="UTF-8" standalone="no"?><!DOCTYPE svg PUBLIC "-//W3C//DTD SVG 1.1//EN" "http://www.w3.org/Graphics/SVG/1.1/DTD/svg11.dtd"><svg width="100%" height="100%" viewBox="0 0 1717 4000" version="1.1" xmlns="http://www.w3.org/2000/svg" xmlns:xlink="http://www.w3.org/1999/xlink" xml:space="preserve" xmlns:serif="http://www.serif.com/" style="fill-rule:evenodd;clip-rule:evenodd;"><g><rect x="45.833" y="45.833" width="1628.16" height="2745.57" style="fill:none;stroke:#000;stroke-width:6.25px;"/><path d="M659.269,45.833l0,38.737l-41.666,41.667l-571.77,0" style="fill:none;fill-rule:nonzero;stroke:#000;stroke-width:6.25px;"/><text id="req" x="58.333px" y="104.146px" style="font-family:'ArialMT', 'Arial', sans-serif;font-size:58.333px;">Requirement Phase</text><path d="M1289.3,219.987c-0,-28.745 -23.338,-52.083 -52.084,-52.083l-754.606,-0c-28.745,-0 -52.083,23.338 -52.083,52.083l-0,37.37c-0,28.746 23.338,52.083 52.083,52.083l754.606,0c28.746,0 52.084,-23.337 52.084,-52.083l-0,-37.37Z" style="fill:#f1f1f1;stroke:#181818;stroke-width:2.08px;"/><text x="472.193px" y="255.981px" style="font-family:'ArialMT', 'Arial', sans-serif;font-size:50px;">Clariﬁcation of problem or task</text><path d="M1333.56,444.857c0,-28.746 -23.338,-52.084 -52.083,-52.084l-843.132,0c-28.745,0 -52.083,23.338 -52.083,52.084l-0,37.37c-0,28.745 23.338,52.083 52.083,52.083l843.132,0c28.745,0 52.083,-23.338 52.083,-52.083l0,-37.37Z" style="fill:#f1f1f1;stroke:#181818;stroke-width:2.08px;"/><text x="427.93px" y="480.851px" style="font-family:'ArialMT', 'Arial', sans-serif;font-size:50px;">Deﬁne Objectives &amp; Requirements</text><rect x="87.5" y="575.977" width="1544.82" height="1940.56" style="fill:none;stroke:#000;stroke-width:6.25px;"/><path d="M777.157,575.977l-0,38.737l-41.667,41.666l-647.99,0" style="fill:none;fill-rule:nonzero;stroke:#000;stroke-width:6.25px;"/><text x="100px" y="634.29px" style="font-family:'ArialMT', 'Arial', sans-serif;font-size:58.333px;">CCS Selection Process</text><rect x="484.794" y="701.388" width="750.236" height="130.404" style="fill:none;stroke:#000;stroke-width:6.25px;"/><path d="M1193.36,701.388l0,38.737l-41.666,41.666l-666.903,0" style="fill:none;fill-rule:nonzero;stroke:#000;stroke-width:6.25px;"/><text id="_01_1_init" serif:id="01_1_init" x="497.294px" y="759.7px" style="font-family:'ArialMT', 'Arial', sans-serif;font-size:58.333px;">CCS Initial <tspan x="785.828px 824.736px " y="759.7px 759.7px ">As</tspan>sessment</text><rect x="600.35" y="876.798" width="519.124" height="130.404" style="fill:none;stroke:#000;stroke-width:6.25px;"/><path d="M1077.81,876.798l-0,38.737l-41.667,41.667l-435.791,0" style="fill:none;fill-rule:nonzero;stroke:#000;stroke-width:6.25px;"/><text id="_01_2_pcf" serif:id="01_2_pcf" x="612.85px" y="935.112px" style="font-family:'ArialMT', 'Arial', sans-serif;font-size:58.333px;">PCF Evaluation</text><rect x="129.167" y="1048.87" width="1461.49" height="792.513" style="fill:none;stroke:#000;stroke-width:6.25px;"/><path d="M972.347,1048.87l0,38.737l-41.667,41.667l-801.513,-0" style="fill:none;fill-rule:nonzero;stroke:#000;stroke-width:6.25px;"/><text id="_01_3_params" serif:id="01_3_params" x="141.667px" y="1107.18px" style="font-family:'ArialMT', 'Arial', sans-serif;font-size:58.333px;">Determine CCS Parameters</text><path d="M1416.74,1252.19c-0,-28.745 -23.338,-52.083 -52.084,-52.083l-1009.49,-0c-28.746,-0 -52.084,23.338 -52.084,52.083l0,37.37c0,28.746 23.338,52.083 52.084,52.083l1009.49,0c28.746,0 52.084,-23.337 52.084,-52.083l-0,-37.37Z" style="fill:#f1f1f1;stroke:#181818;stroke-width:2.08px;"/><text x="344.751px" y="1288.18px" style="font-family:'ArialMT', 'Arial', sans-serif;font-size:50px;">Research CCS category spesiﬁc solutions</text><path d="M1548.99,1477.06c-0,-28.746 -23.338,-52.084 -52.084,-52.084l-1273.99,0c-28.746,0 -52.084,23.338 -52.084,52.084l0,37.37c0,28.745 23.338,52.083 52.084,52.083l1273.99,0c28.746,0 52.084,-23.338 52.084,-52.083l-0,-37.37Z" style="fill:#f1f1f1;stroke:#181818;stroke-width:2.08px;"/><text x="212.5px" y="1513.05px" style="font-family:'ArialMT', 'Arial', sans-serif;font-size:50px;">Determine CCS parameters (rate, capacity<tspan x="1153.56px 1167.46px " y="1513.05px 1513.05px ">, </tspan>energy)</text><path d="M1107,1701.93c-0,-28.746 -23.338,-52.084 -52.084,-52.084l-390.006,0c-28.746,0 -52.084,23.338 -52.084,52.084l0,37.37c0,28.745 23.338,52.083 52.084,52.083l390.006,0c28.746,0 52.084,-23.338 52.084,-52.083l-0,-37.37Z" style="fill:#f1f1f1;stroke:#181818;stroke-width:2.08px;"/><text x="654.492px" y="1737.92px" style="font-family:'ArialMT', 'Arial', sans-serif;font-size:50px;">Convert all units</text><rect x="472.831" y="1886.39" width="774.162" height="130.404" style="fill:none;stroke:#000;stroke-width:6.25px;"/><path d="M1205.33,1886.39l0,38.737l-41.666,41.667l-690.829,-0" style="fill:none;fill-rule:nonzero;stroke:#000;stroke-width:6.25px;"/><g id="_01_4_neutrality" serif:id="01_4_neutrality" transform="matrix(4.16667,0,0,4.16667,485.331,1944.7)"><text x="0px" y="0px" style="font-family:'ArialMT', 'Arial', sans-serif;font-size:14px;">Evaluate CO</text><text x="79.372px" y="0px" style="font-family:'MicrosoftSansSerif', 'Microsoft Sans Serif', sans-serif;font-size:14px;">₂</text><text x="87.924px" y="0px" style="font-family:'ArialMT', 'Arial', sans-serif;font-size:14px;">Neutrality</text></g><path d="M1061.98,2152.21c0,-28.746 -23.338,-52.084 -52.083,-52.084l-299.968,0c-28.745,0 -52.083,23.338 -52.083,52.084l-0,37.37c-0,28.745 23.338,52.083 52.083,52.083l299.968,-0c28.745,-0 52.083,-23.338 52.083,-52.083l0,-37.37Z" style="fill:#f1f1f1;stroke:#181818;stroke-width:2.08px;"/><text x="699.512px" y="2188.2px" style="font-family:'ArialMT', 'Arial', sans-serif;font-size:50px;">CCS Ranking</text><path d="M1075.52,2377.08c-0,-28.745 -23.338,-52.083 -52.084,-52.083l-327.042,-0c-28.746,-0 -52.083,23.338 -52.083,52.083l-0,37.37c-0,28.746 23.337,52.084 52.083,52.084l327.042,-0c28.746,-0 52.084,-23.338 52.084,-52.084l-0,-37.37Z" style="fill:#f1f1f1;stroke:#181818;stroke-width:2.08px;"/><text x="685.974px" y="2413.07px" style="font-family:'ArialMT', 'Arial', sans-serif;font-size:50px;">CCS Selection</text><path d="M1259.23,2651.95c-0,-28.745 -23.338,-52.083 -52.084,-52.083l-694.474,-0c-28.746,-0 -52.083,23.338 -52.083,52.083l-0,37.37c-0,28.746 23.337,52.084 52.083,52.084l694.474,-0c28.746,-0 52.084,-23.338 52.084,-52.084l-0,-37.37Z" style="fill:#f1f1f1;stroke:#181818;stroke-width:2.08px;"/><text x="502.258px" y="2687.94px" style="font-family:'ArialMT', 'Arial', sans-serif;font-size:50px;">Update List of Requirements</text><rect x="427.913" y="2836.41" width="863.998" height="342.773" style="fill:none;stroke:#000;stroke-width:6.25px;"/><path d="M1250.24,2836.41l0,38.737l-41.666,41.666l-780.665,0" style="fill:none;fill-rule:nonzero;stroke:#000;stroke-width:6.25px;"/><text id="sol" x="440.413px" y="2894.72px" style="font-family:'ArialMT', 'Arial', sans-serif;font-size:58.333px;">Solution Exploration Phase</text><rect x="525.539" y="3224.19" width="668.746" height="342.773" style="fill:none;stroke:#000;stroke-width:6.25px;"/><path d="M1152.62,3224.19l0,38.737l-41.666,41.667l-585.413,-0" style="fill:none;fill-rule:nonzero;stroke:#000;stroke-width:6.25px;"/><text id="dev" x="538.039px" y="3282.5px" style="font-family:'ArialMT', 'Arial', sans-serif;font-size:58.333px;">Development Phase</text><rect x="440.005" y="3611.97" width="839.815" height="342.773" style="fill:none;stroke:#000;stroke-width:6.25px;"/><path d="M1238.15,3611.97l-0,38.737l-41.667,41.667l-756.481,-0" style="fill:none;fill-rule:nonzero;stroke:#000;stroke-width:6.25px;"/><text id="int" x="452.505px" y="3670.28px" style="font-family:'ArialMT', 'Arial', sans-serif;font-size:58.333px;">Product Integration Phase</text><path d="M859.912,309.44l0,83.333" style="fill:none;fill-rule:nonzero;stroke:#181818;stroke-width:4.17px;"/><path d="M843.245,351.107l16.667,41.666l16.667,-41.666l-16.667,16.666l-16.667,-16.666Z" style="fill:#181818;fill-rule:nonzero;stroke:#181818;stroke-width:4.17px;"/><path d="M859.912,534.31l0,665.796" style="fill:none;fill-rule:nonzero;stroke:#181818;stroke-width:4.17px;"/><path d="M843.245,1158.44l16.667,41.667l16.667,-41.667l-16.667,16.667l-16.667,-16.667Z" style="fill:#181818;fill-rule:nonzero;stroke:#181818;stroke-width:4.17px;"/><path d="M859.912,1341.64l0,83.333" style="fill:none;fill-rule:nonzero;stroke:#181818;stroke-width:4.17px;"/><path d="M843.245,1383.31l16.667,41.666l16.667,-41.666l-16.667,16.666l-16.667,-16.666Z" style="fill:#181818;fill-rule:nonzero;stroke:#181818;stroke-width:4.17px;"/><path d="M859.912,1566.51l0,83.333" style="fill:none;fill-rule:nonzero;stroke:#181818;stroke-width:4.17px;"/><path d="M843.245,1608.18l16.667,41.666l16.667,-41.666l-16.667,16.666l-16.667,-16.666Z" style="fill:#181818;fill-rule:nonzero;stroke:#181818;stroke-width:4.17px;"/><path d="M859.912,1791.38l0,308.744" style="fill:none;fill-rule:nonzero;stroke:#181818;stroke-width:4.17px;"/><path d="M843.245,2058.46l16.667,41.666l16.667,-41.666l-16.667,16.666l-16.667,-16.666Z" style="fill:#181818;fill-rule:nonzero;stroke:#181818;stroke-width:4.17px;"/><path d="M859.912,2241.66l0,83.333" style="fill:none;fill-rule:nonzero;stroke:#181818;stroke-width:4.17px;"/><path d="M843.245,2283.33l16.667,41.667l16.667,-41.667l-16.667,16.667l-16.667,-16.667Z" style="fill:#181818;fill-rule:nonzero;stroke:#181818;stroke-width:4.17px;"/><path d="M859.912,2466.53l0,133.333" style="fill:none;fill-rule:nonzero;stroke:#181818;stroke-width:4.17px;"/><path d="M843.245,2558.2l16.667,41.667l16.667,-41.667l-16.667,16.667l-16.667,-16.667Z" style="fill:#181818;fill-rule:nonzero;stroke:#181818;stroke-width:4.17px;"/><path d="M859.912,2741.35l0,1021.86" style="fill:none;fill-rule:nonzero;stroke:#181818;stroke-width:4.17px;"/><path d="M843.245,3721.54l16.667,41.667l16.667,-41.667l-16.667,16.667l-16.667,-16.667Z" style="fill:#181818;fill-rule:nonzero;stroke:#181818;stroke-width:4.17px;"/></g></svg>