<?xml version="1.0" encoding="UTF-8" standalone="no"?><!DOCTYPE svg PUBLIC "-//W3C//DTD SVG 1.1//EN" "http://www.w3.org/Graphics/SVG/1.1/DTD/svg11.dtd"><svg width="100%" height="100%" viewBox="0 0 10488 17780" version="1.1" xmlns="http://www.w3.org/2000/svg" xmlns:xlink="http://www.w3.org/1999/xlink" xml:space="preserve" xmlns:serif="http://www.serif.com/" style="fill-rule:evenodd;clip-rule:evenodd;"><g><rect x="190.971" y="190.971" width="10106.6" height="12551" style="fill:none;stroke:#000;stroke-width:26.04px;"/><path d="M2746.95,190.971l0,161.404l-173.608,173.613l-2382.38,-0" style="fill:none;fill-rule:nonzero;stroke:#000;stroke-width:26.04px;"/><text id="req" x="243.054px" y="433.942px" style="font-family:'ArialMT', 'Arial', sans-serif;font-size:243.054px;">Requirement Phase</text><path d="M7295.62,916.613c0,-119.771 -97.237,-217.013 -217.012,-217.013l-3144.19,0c-119.775,0 -217.013,97.242 -217.013,217.013l0,155.708c0,119.775 97.238,217.012 217.013,217.012l3144.19,0c119.775,0 217.012,-97.237 217.012,-217.012l0,-155.709Z" style="fill:#f1f1f1;stroke:#181818;stroke-width:8.67px;"/><text x="3891.04px" y="1066.59px" style="font-family:'ArialMT', 'Arial', sans-serif;font-size:208.333px;">Clariﬁcation of problem or task</text><path d="M7480.08,1853.57c0,-119.775 -97.241,-217.017 -217.012,-217.017l-3513.05,0c-119.775,0 -217.013,97.242 -217.013,217.017l0,155.708c0,119.771 97.238,217.013 217.013,217.013l3513.05,-0c119.771,-0 217.012,-97.242 217.012,-217.013l0,-155.708Z" style="fill:#f1f1f1;stroke:#181818;stroke-width:8.67px;"/><text x="3706.61px" y="2003.55px" style="font-family:'ArialMT', 'Arial', sans-serif;font-size:208.333px;">Deﬁne Objectives &amp; Requirements</text><rect x="364.583" y="2399.9" width="9759.38" height="9196.75" style="fill:none;stroke:#000;stroke-width:26.04px;"/><path d="M3238.15,2399.9l0,161.404l-173.612,173.609l-2699.96,-0" style="fill:none;fill-rule:nonzero;stroke:#000;stroke-width:26.04px;"/><text x="416.667px" y="2642.88px" style="font-family:'ArialMT', 'Arial', sans-serif;font-size:243.054px;">CCS Selection Process</text><rect x="3943.55" y="2922.45" width="3125.98" height="543.35" style="fill:none;stroke:#000;stroke-width:26.04px;"/><path d="M6895.92,2922.45l-0,161.404l-173.613,173.608l-2778.76,0" style="fill:none;fill-rule:nonzero;stroke:#000;stroke-width:26.04px;"/><g id="_01_1_init" serif:id="01_1_init"><text x="3995.63px" y="3165.42px" style="font-family:'ArialMT', 'Arial', sans-serif;font-size:243.054px;">CCS Initial</text><text x="5197.83px" y="3165.42px" style="font-family:'ArialMT', 'Arial', sans-serif;font-size:243.054px;">Assessment</text></g><rect x="4425.04" y="3653.33" width="2163.02" height="543.35" style="fill:none;stroke:#000;stroke-width:26.04px;"/><path d="M6414.42,3653.33l-0,161.404l-173.609,173.613l-1815.8,-0" style="fill:none;fill-rule:nonzero;stroke:#000;stroke-width:26.04px;"/><text id="_01_2_pcf" serif:id="01_2_pcf" x="4477.12px" y="3896.3px" style="font-family:'ArialMT', 'Arial', sans-serif;font-size:243.054px;">PCF Evaluation</text><rect x="3663.1" y="4384.21" width="3686.86" height="543.35" style="fill:none;stroke:#000;stroke-width:26.04px;"/><path d="M7176.38,4384.21l0,161.4l-173.612,173.613l-3339.64,-0" style="fill:none;fill-rule:nonzero;stroke:#000;stroke-width:26.04px;"/><text id="_01_3_params" serif:id="01_3_params" x="3715.19px" y="4627.17px" style="font-family:'ArialMT', 'Arial', sans-serif;font-size:243.054px;">Determine CCS Parameters</text><rect x="538.196" y="5101.17" width="9412.12" height="4413.25" style="fill:none;stroke:#000;stroke-width:26.04px;"/><path d="M3590.26,5101.17l0,161.404l-173.612,173.608l-2878.45,0" style="fill:none;fill-rule:nonzero;stroke:#000;stroke-width:26.04px;"/><g id="_01_4_neutrality" serif:id="01_4_neutrality"><text x="590.279px" y="5344.12px" style="font-family:'ArialMT', 'Arial', sans-serif;font-size:243.056px;">Evaluate CO</text><text x="1968.27px" y="5344.12px" style="font-family:'MicrosoftSansSerif', 'Microsoft Sans Serif', sans-serif;font-size:243.056px;">₂</text><text x="2116.74px" y="5344.12px" style="font-family:'ArialMT', 'Arial', sans-serif;font-size:243.056px;">Neutrality</text></g><path d="M9116.21,5948.33c0,-119.775 -97.237,-217.012 -217.012,-217.012l-6785.33,-0c-119.77,-0 -217.012,97.237 -217.012,217.012l-0,155.709c-0,119.775 97.242,217.012 217.012,217.012l6785.33,0c119.775,0 217.012,-97.237 217.012,-217.012l0,-155.709Z" style="fill:#f1f1f1;stroke:#181818;stroke-width:8.67px;"/><text x="2070.46px" y="6098.33px" style="font-family:'ArialMT', 'Arial', sans-serif;font-size:208.333px;">Calculate minimum required ﬁxation rate (R_min = PCF / lifetime)</text><path d="M8342.42,6885.29c-0,-119.775 -97.242,-217.013 -217.013,-217.013l-5237.71,0c-119.775,0 -217.013,97.238 -217.013,217.013l0,155.708c0,119.775 97.238,217.013 217.013,217.013l5237.71,-0c119.771,-0 217.013,-97.238 217.013,-217.013l-0,-155.708Z" style="fill:#f1f1f1;stroke:#181818;stroke-width:8.67px;"/><text x="2844.28px" y="7035.25px" style="font-family:'ArialMT', 'Arial', sans-serif;font-size:208.333px;">Calculate required CCS speciﬁc unit to meet R_min</text><path d="M2916.62,7605.25l5179.83,0l208.333,208.333l-208.333,208.334l-5179.83,-0l-208.334,-208.334l208.334,-208.333Z" style="fill:#f1f1f1;fill-rule:nonzero;stroke:#181818;stroke-width:8.67px;"/><text x="2916.62px" y="7879.67px" style="font-family:'ArialMT', 'Arial', sans-serif;font-size:190.971px;">Is required CCS speciﬁc unit compatible with product?</text><g><text x="2374.64px" y="7768.54px" style="font-family:'ArialMT', 'Arial', sans-serif;font-size:190.971px;">Y</text><text x="2484.49px" y="7768.54px" style="font-family:'ArialMT', 'Arial', sans-serif;font-size:190.971px;">es</text></g><text x="8304.79px" y="7768.54px" style="font-family:'ArialMT', 'Arial', sans-serif;font-size:190.971px;">No</text><path d="M4322.79,8412.54c-0,-119.771 -97.238,-217.013 -217.013,-217.013l-3142.26,0c-119.775,0 -217.013,97.242 -217.013,217.013l0,155.708c0,119.775 97.238,217.017 217.013,217.017l3142.26,-0c119.775,-0 217.013,-97.242 217.013,-217.017l-0,-155.708Z" style="fill:#f1f1f1;stroke:#181818;stroke-width:8.67px;"/><text x="920.138px" y="8562.5px" style="font-family:'ArialMT', 'Arial', sans-serif;font-size:208.333px;">Include CCS method in ranking</text><path d="M9742,8412.54c0,-119.771 -97.242,-217.013 -217.013,-217.013l-2093.17,0c-119.775,0 -217.017,97.242 -217.017,217.013l0,155.708c0,119.775 97.242,217.017 217.017,217.017l2093.17,-0c119.77,-0 217.012,-97.242 217.012,-217.017l0,-155.708Z" style="fill:#f1f1f1;stroke:#181818;stroke-width:8.67px;"/><text x="7388.42px" y="8562.5px" style="font-family:'ArialMT', 'Arial', sans-serif;font-size:208.333px;">Exclude CCS method</text><path d="M5506.54,8889.42l208.333,208.333l-208.333,208.333l-208.334,-208.333l208.334,-208.333Z" style="fill:#f1f1f1;fill-rule:nonzero;stroke:#181818;stroke-width:8.67px;"/><path d="M6348.5,10078.7c0,-119.771 -97.242,-217.013 -217.017,-217.013l-1249.86,0c-119.775,0 -217.013,97.242 -217.013,217.013l0,155.708c0,119.775 97.238,217.017 217.013,217.017l1249.86,-0c119.775,-0 217.017,-97.242 217.017,-217.017l0,-155.708Z" style="fill:#f1f1f1;stroke:#181818;stroke-width:8.67px;"/><text x="4838.21px" y="10228.6px" style="font-family:'ArialMT', 'Arial', sans-serif;font-size:208.333px;">CCS Ranking</text><path d="M6404.88,11015.6c0,-119.775 -97.237,-217.012 -217.012,-217.012l-1362.67,-0c-119.775,-0 -217.017,97.237 -217.017,217.012l-0,155.708c-0,119.771 97.242,217.013 217.017,217.013l1362.67,-0c119.775,-0 217.012,-97.242 217.012,-217.013l0,-155.708Z" style="fill:#f1f1f1;stroke:#181818;stroke-width:8.67px;"/><text x="4781.79px" y="11165.6px" style="font-family:'ArialMT', 'Arial', sans-serif;font-size:208.333px;">CCS Selection</text><path d="M7170.38,12160.9c0,-119.775 -97.242,-217.013 -217.012,-217.013l-2893.64,0c-119.775,0 -217.017,97.238 -217.017,217.013l0,155.708c0,119.771 97.242,217.013 217.017,217.013l2893.64,-0.001c119.77,0.001 217.012,-97.241 217.012,-217.012l0,-155.708Z" style="fill:#f1f1f1;stroke:#181818;stroke-width:8.67px;"/><text x="4016.31px" y="12310.9px" style="font-family:'ArialMT', 'Arial', sans-serif;font-size:208.333px;">Update List of Requirements</text><rect x="3706.54" y="12929.5" width="3599.99" height="1428.22" style="fill:none;stroke:#000;stroke-width:26.04px;"/><path d="M7132.92,12929.5l-0,161.404l-173.613,173.613l-3252.77,-0" style="fill:none;fill-rule:nonzero;stroke:#000;stroke-width:26.04px;"/><text id="sol" x="3758.62px" y="13172.5px" style="font-family:'ArialMT', 'Arial', sans-serif;font-size:243.054px;">Solution Exploration Phase</text><rect x="4113.32" y="14545.2" width="2786.44" height="1428.22" style="fill:none;stroke:#000;stroke-width:26.04px;"/><path d="M6726.17,14545.2l-0,161.404l-173.613,173.609l-2439.22,-0" style="fill:none;fill-rule:nonzero;stroke:#000;stroke-width:26.04px;"/><text id="dev" x="4165.4px" y="14788.2px" style="font-family:'ArialMT', 'Arial', sans-serif;font-size:243.054px;">Development Phase</text><rect x="3756.92" y="16161" width="3499.23" height="1428.22" style="fill:none;stroke:#000;stroke-width:26.04px;"/><path d="M7082.54,16161l-0,161.404l-173.613,173.609l-3152.01,-0" style="fill:none;fill-rule:nonzero;stroke:#000;stroke-width:26.04px;"/><text id="int" x="3809px" y="16404px" style="font-family:'ArialMT', 'Arial', sans-serif;font-size:243.054px;">Product Integration Phase</text><path d="M5506.54,1289.33l-0,347.221" style="fill:none;fill-rule:nonzero;stroke:#181818;stroke-width:17.38px;"/><path d="M5437.08,1462.95l69.446,173.608l69.442,-173.608l-69.442,69.442l-69.446,-69.442Z" style="fill:#181818;fill-rule:nonzero;stroke:#181818;stroke-width:17.38px;"/><path d="M5506.54,2226.29l-0,3505.03" style="fill:none;fill-rule:nonzero;stroke:#181818;stroke-width:17.38px;"/><path d="M5437.08,5557.71l69.446,173.613l69.442,-173.613l-69.442,69.446l-69.446,-69.446Z" style="fill:#181818;fill-rule:nonzero;stroke:#181818;stroke-width:17.38px;"/><path d="M5506.54,6321.04l-0,347.225" style="fill:none;fill-rule:nonzero;stroke:#181818;stroke-width:17.38px;"/><path d="M5437.08,6494.67l69.446,173.612l69.442,-173.612l-69.442,69.445l-69.446,-69.445Z" style="fill:#181818;fill-rule:nonzero;stroke:#181818;stroke-width:17.38px;"/><path d="M2708.28,7813.58l-173.612,0" style="fill:none;fill-rule:nonzero;stroke:#181818;stroke-width:17.38px;"/><path d="M2534.67,7813.58l-0,381.946" style="fill:none;fill-rule:nonzero;stroke:#181818;stroke-width:17.38px;"/><path d="M2465.23,8021.92l69.442,173.612l69.446,-173.612l-69.446,69.445l-69.442,-69.445Z" style="fill:#181818;fill-rule:nonzero;stroke:#181818;stroke-width:17.38px;"/><path d="M8304.79,7813.58l173.612,0" style="fill:none;fill-rule:nonzero;stroke:#181818;stroke-width:17.38px;"/><path d="M8478.42,7813.58l-0,381.946" style="fill:none;fill-rule:nonzero;stroke:#181818;stroke-width:17.38px;"/><path d="M8408.96,8021.92l69.446,173.612l69.442,-173.612l-69.442,69.445l-69.446,-69.445Z" style="fill:#181818;fill-rule:nonzero;stroke:#181818;stroke-width:17.38px;"/><path d="M2534.67,8785.25l-0,312.5" style="fill:none;fill-rule:nonzero;stroke:#181818;stroke-width:17.38px;"/><path d="M2534.67,9097.75l2763.53,0" style="fill:none;fill-rule:nonzero;stroke:#181818;stroke-width:17.38px;"/><path d="M5124.58,9028.29l173.613,69.445l-173.613,69.442l69.446,-69.442l-69.446,-69.445Z" style="fill:#181818;fill-rule:nonzero;stroke:#181818;stroke-width:17.38px;"/><path d="M8478.42,8785.25l-0,312.5" style="fill:none;fill-rule:nonzero;stroke:#181818;stroke-width:17.38px;"/><path d="M8478.42,9097.75l-2763.53,0" style="fill:none;fill-rule:nonzero;stroke:#181818;stroke-width:17.38px;"/><path d="M5888.5,9028.29l-173.608,69.445l173.608,69.442l-69.442,-69.442l69.442,-69.445Z" style="fill:#181818;fill-rule:nonzero;stroke:#181818;stroke-width:17.38px;"/><path d="M5506.54,7258l-0,347.221" style="fill:none;fill-rule:nonzero;stroke:#181818;stroke-width:17.38px;"/><path d="M5437.08,7431.62l69.446,173.608l69.442,-173.608l-69.442,69.442l-69.446,-69.442Z" style="fill:#181818;fill-rule:nonzero;stroke:#181818;stroke-width:17.38px;"/><path d="M5506.54,9306.08l-0,555.555" style="fill:none;fill-rule:nonzero;stroke:#181818;stroke-width:17.38px;"/><path d="M5437.08,9688.04l69.446,173.612l69.442,-173.612l-69.442,69.446l-69.446,-69.446Z" style="fill:#181818;fill-rule:nonzero;stroke:#181818;stroke-width:17.38px;"/><path d="M5506.54,10451.4l-0,347.225" style="fill:none;fill-rule:nonzero;stroke:#181818;stroke-width:17.38px;"/><path d="M5437.08,10625l69.446,173.613l69.442,-173.613l-69.442,69.446l-69.446,-69.446Z" style="fill:#181818;fill-rule:nonzero;stroke:#181818;stroke-width:17.38px;"/><path d="M5506.54,11388.3l-0,555.559" style="fill:none;fill-rule:nonzero;stroke:#181818;stroke-width:17.38px;"/><path d="M5437.08,11770.3l69.446,173.612l69.442,-173.612l-69.442,69.445l-69.446,-69.445Z" style="fill:#181818;fill-rule:nonzero;stroke:#181818;stroke-width:17.38px;"/><path d="M5506.54,12531.1l-0,4260" style="fill:none;fill-rule:nonzero;stroke:#181818;stroke-width:17.38px;"/><path d="M5437.08,16617.5l69.446,173.612l69.442,-173.612l-69.442,69.445l-69.446,-69.445Z" style="fill:#181818;fill-rule:nonzero;stroke:#181818;stroke-width:17.38px;"/></g></svg>