<?xml version="1.0" encoding="UTF-8" standalone="no"?><!DOCTYPE svg PUBLIC "-//W3C//DTD SVG 1.1//EN" "http://www.w3.org/Graphics/SVG/1.1/DTD/svg11.dtd"><svg width="100%" height="100%" viewBox="0 0 2517 4267" version="1.1" xmlns="http://www.w3.org/2000/svg" xmlns:xlink="http://www.w3.org/1999/xlink" xml:space="preserve" xmlns:serif="http://www.serif.com/" style="fill-rule:evenodd;clip-rule:evenodd;"><rect x="143.438" y="1234.93" width="616.037" height="58.175" style="fill:#77b88a;fill-opacity:0.25;"/><g><rect x="45.833" y="45.833" width="2425.58" height="3012.24" style="fill:none;stroke:#000;stroke-width:6.25px;"/><path d="M659.269,45.833l0,38.737l-41.666,41.667l-571.77,0" style="fill:none;fill-rule:nonzero;stroke:#000;stroke-width:6.25px;"/><text id="req" x="58.333px" y="104.146px" style="font-family:'ArialMT', 'Arial', sans-serif;font-size:58.333px;">Requirement Phase</text><path d="M1750.95,219.987c0,-28.745 -23.337,-52.083 -52.083,-52.083l-754.606,-0c-28.746,-0 -52.083,23.338 -52.083,52.083l-0,37.37c-0,28.746 23.337,52.083 52.083,52.083l754.606,0c28.746,0 52.083,-23.337 52.083,-52.083l0,-37.37Z" style="fill:#f1f1f1;stroke:#181818;stroke-width:2.08px;"/><text x="933.849px" y="255.981px" style="font-family:'ArialMT', 'Arial', sans-serif;font-size:50px;">Clariﬁcation of problem or task</text><path d="M1795.22,444.857c-0,-28.746 -23.338,-52.084 -52.083,-52.084l-843.132,0c-28.746,0 -52.083,23.338 -52.083,52.084l-0,37.37c-0,28.745 23.337,52.083 52.083,52.083l843.132,0c28.745,0 52.083,-23.338 52.083,-52.083l-0,-37.37Z" style="fill:#f1f1f1;stroke:#181818;stroke-width:2.08px;"/><text x="889.586px" y="480.851px" style="font-family:'ArialMT', 'Arial', sans-serif;font-size:50px;">Deﬁne Objectives &amp; Requirements</text><rect x="87.5" y="575.977" width="2342.25" height="2207.22" style="fill:none;stroke:#000;stroke-width:6.25px;"/><path d="M777.157,575.977l-0,38.737l-41.667,41.666l-647.99,0" style="fill:none;fill-rule:nonzero;stroke:#000;stroke-width:6.25px;"/><text x="100px" y="634.29px" style="font-family:'ArialMT', 'Arial', sans-serif;font-size:58.333px;">CCS Selection Process</text><rect x="946.451" y="701.388" width="750.236" height="130.404" style="fill:none;stroke:#000;stroke-width:6.25px;"/><path d="M1655.02,701.388l0,38.737l-41.667,41.666l-666.902,0" style="fill:none;fill-rule:nonzero;stroke:#000;stroke-width:6.25px;"/><text id="_01_1_init" serif:id="01_1_init" x="958.951px" y="759.7px" style="font-family:'ArialMT', 'Arial', sans-serif;font-size:58.333px;">CCS Initial <tspan x="1247.48px 1286.39px " y="759.7px 759.7px ">As</tspan>sessment</text><rect x="1062.01" y="876.798" width="519.124" height="130.404" style="fill:none;stroke:#000;stroke-width:6.25px;"/><path d="M1539.46,876.798l0,38.737l-41.666,41.667l-435.791,0" style="fill:none;fill-rule:nonzero;stroke:#000;stroke-width:6.25px;"/><text id="_01_2_pcf" serif:id="01_2_pcf" x="1074.51px" y="935.112px" style="font-family:'ArialMT', 'Arial', sans-serif;font-size:58.333px;">PCF Evaluation</text><rect x="879.145" y="1052.21" width="884.847" height="130.404" style="fill:none;stroke:#000;stroke-width:6.25px;"/><path d="M1722.33,1052.21l-0,38.736l-41.667,41.667l-801.514,-0" style="fill:none;fill-rule:nonzero;stroke:#000;stroke-width:6.25px;"/><text id="_01_3_params" serif:id="01_3_params" x="891.645px" y="1110.52px" style="font-family:'ArialMT', 'Arial', sans-serif;font-size:58.333px;">Determine CCS Parameters</text><rect x="129.167" y="1224.28" width="2258.91" height="1059.18" style="fill:none;stroke:#000;stroke-width:6.25px;"/><path d="M861.662,1224.28l-0,38.737l-41.667,41.666l-690.828,0" style="fill:none;fill-rule:nonzero;stroke:#000;stroke-width:6.25px;"/><g id="_01_4_neutrality" serif:id="01_4_neutrality" transform="matrix(4.16667,0,0,4.16667,141.667,1282.59)"><text x="0px" y="0px" style="font-family:'ArialMT', 'Arial', sans-serif;font-size:14px;">Evaluate CO</text><text x="79.372px" y="0px" style="font-family:'MicrosoftSansSerif', 'Microsoft Sans Serif', sans-serif;font-size:14px;">₂</text><text x="87.924px" y="0px" style="font-family:'ArialMT', 'Arial', sans-serif;font-size:14px;">Neutrality</text></g><path d="M2187.89,1427.6c0,-28.746 -23.337,-52.083 -52.083,-52.083l-1628.48,-0c-28.745,-0 -52.083,23.337 -52.083,52.083l-0,37.37c-0,28.746 23.338,52.083 52.083,52.083l1628.48,0c28.746,0 52.083,-23.337 52.083,-52.083l0,-37.37Z" style="fill:#f1f1f1;stroke:#181818;stroke-width:2.08px;"/><text x="496.91px" y="1463.6px" style="font-family:'ArialMT', 'Arial', sans-serif;font-size:50px;">Calculate minimum required ﬁxation rate (R_min = PCF / lifetime)</text><path d="M2002.18,1652.47c-0,-28.746 -23.338,-52.083 -52.083,-52.083l-1257.05,-0c-28.746,-0 -52.083,23.337 -52.083,52.083l-0,37.37c-0,28.746 23.337,52.083 52.083,52.083l1257.05,0c28.745,0 52.083,-23.337 52.083,-52.083l-0,-37.37Z" style="fill:#f1f1f1;stroke:#181818;stroke-width:2.08px;"/><text x="682.628px" y="1688.46px" style="font-family:'ArialMT', 'Arial', sans-serif;font-size:50px;">Calculate required CCS speciﬁc unit to meet R_min</text><path d="M699.988,1825.26l1243.16,0l50,50l-50,50l-1243.16,0l-50,-50l50,-50Z" style="fill:#f1f1f1;fill-rule:nonzero;stroke:#181818;stroke-width:2.08px;"/><text x="699.988px" y="1891.12px" style="font-family:'ArialMT', 'Arial', sans-serif;font-size:45.833px;">Is required CCS speciﬁc unit compatible with product?</text><text x="569.914px" y="1864.45px" style="font-family:'ArialMT', 'Arial', sans-serif;font-size:45.833px;">Y<tspan x="596.277px 621.767px " y="1864.45px 1864.45px ">es</tspan></text><text x="1993.15px" y="1864.45px" style="font-family:'ArialMT', 'Arial', sans-serif;font-size:45.833px;">No</text><path d="M1037.47,2019.01c0,-28.745 -23.337,-52.083 -52.083,-52.083l-754.142,-0c-28.746,-0 -52.083,23.338 -52.083,52.083l-0,37.37c-0,28.746 23.337,52.084 52.083,52.084l754.142,-0c28.746,-0 52.083,-23.338 52.083,-52.084l0,-37.37Z" style="fill:#f1f1f1;stroke:#181818;stroke-width:2.08px;"/><text x="220.833px" y="2055px" style="font-family:'ArialMT', 'Arial', sans-serif;font-size:50px;">Include CCS method in ranking</text><path d="M2338.08,2019.01c0,-28.745 -23.338,-52.083 -52.083,-52.083l-502.36,-0c-28.746,-0 -52.084,23.338 -52.084,52.083l0,37.37c0,28.746 23.338,52.084 52.084,52.084l502.36,-0c28.745,-0 52.083,-23.338 52.083,-52.084l0,-37.37Z" style="fill:#f1f1f1;stroke:#181818;stroke-width:2.08px;"/><text x="1773.22px" y="2055px" style="font-family:'ArialMT', 'Arial', sans-serif;font-size:50px;">Exclude CCS method</text><path d="M1321.57,2133.46l50,50l-50,50l-50,-50l50,-50Z" style="fill:#f1f1f1;fill-rule:nonzero;stroke:#181818;stroke-width:2.08px;"/><path d="M1523.64,2418.88c-0,-28.745 -23.338,-52.083 -52.084,-52.083l-299.967,-0c-28.746,-0 -52.083,23.338 -52.083,52.083l-0,37.37c-0,28.746 23.337,52.084 52.083,52.084l299.967,-0c28.746,-0 52.084,-23.338 52.084,-52.084l-0,-37.37Z" style="fill:#f1f1f1;stroke:#181818;stroke-width:2.08px;"/><text id="_01_5_rank" serif:id="01_5_rank" x="1161.17px" y="2454.87px" style="font-family:'ArialMT', 'Arial', sans-serif;font-size:50px;">CCS Ranking</text><path d="M1537.17,2643.75c0,-28.746 -23.337,-52.083 -52.083,-52.083l-327.042,-0c-28.746,-0 -52.084,23.337 -52.084,52.083l0,37.37c0,28.745 23.338,52.083 52.084,52.083l327.042,0c28.746,0 52.083,-23.338 52.083,-52.083l0,-37.37Z" style="fill:#f1f1f1;stroke:#181818;stroke-width:2.08px;"/><text id="_01_6_select" serif:id="01_6_select" x="1147.63px" y="2679.74px" style="font-family:'ArialMT', 'Arial', sans-serif;font-size:50px;">CCS Selection</text><path d="M1720.89,2918.62c0,-28.746 -23.338,-52.083 -52.083,-52.083l-694.474,-0c-28.746,-0 -52.084,23.337 -52.084,52.083l0,37.37c0,28.745 23.338,52.083 52.084,52.083l694.474,0c28.745,0 52.083,-23.338 52.083,-52.083l0,-37.37Z" style="fill:#f1f1f1;stroke:#181818;stroke-width:2.08px;"/><text x="963.915px" y="2954.61px" style="font-family:'ArialMT', 'Arial', sans-serif;font-size:50px;">Update List of Requirements</text><rect x="889.57" y="3103.08" width="863.998" height="342.773" style="fill:none;stroke:#000;stroke-width:6.25px;"/><path d="M1711.9,3103.08l-0,38.737l-41.667,41.667l-780.664,0" style="fill:none;fill-rule:nonzero;stroke:#000;stroke-width:6.25px;"/><text id="sol" x="902.07px" y="3161.39px" style="font-family:'ArialMT', 'Arial', sans-serif;font-size:58.333px;">Solution Exploration Phase</text><rect x="987.196" y="3490.86" width="668.746" height="342.773" style="fill:none;stroke:#000;stroke-width:6.25px;"/><path d="M1614.28,3490.86l0,38.737l-41.667,41.666l-585.412,0" style="fill:none;fill-rule:nonzero;stroke:#000;stroke-width:6.25px;"/><text id="dev" x="999.696px" y="3549.17px" style="font-family:'ArialMT', 'Arial', sans-serif;font-size:58.333px;">Development Phase</text><rect x="901.661" y="3878.64" width="839.815" height="342.773" style="fill:none;stroke:#000;stroke-width:6.25px;"/><path d="M1699.81,3878.64l-0,38.737l-41.667,41.666l-756.482,0" style="fill:none;fill-rule:nonzero;stroke:#000;stroke-width:6.25px;"/><text id="int" x="914.161px" y="3936.95px" style="font-family:'ArialMT', 'Arial', sans-serif;font-size:58.333px;">Product Integration Phase</text><path d="M1321.57,309.44l-0,83.333" style="fill:none;fill-rule:nonzero;stroke:#181818;stroke-width:4.17px;"/><path d="M1304.9,351.107l16.667,41.666l16.666,-41.666l-16.666,16.666l-16.667,-16.666Z" style="fill:#181818;fill-rule:nonzero;stroke:#181818;stroke-width:4.17px;"/><path d="M1321.57,534.31l-0,841.207" style="fill:none;fill-rule:nonzero;stroke:#181818;stroke-width:4.17px;"/><path d="M1304.9,1333.85l16.667,41.667l16.666,-41.667l-16.666,16.667l-16.667,-16.667Z" style="fill:#181818;fill-rule:nonzero;stroke:#181818;stroke-width:4.17px;"/><path d="M1321.57,1517.05l-0,83.334" style="fill:none;fill-rule:nonzero;stroke:#181818;stroke-width:4.17px;"/><path d="M1304.9,1558.72l16.667,41.667l16.666,-41.667l-16.666,16.667l-16.667,-16.667Z" style="fill:#181818;fill-rule:nonzero;stroke:#181818;stroke-width:4.17px;"/><path d="M649.988,1875.26l-41.667,0" style="fill:none;fill-rule:nonzero;stroke:#181818;stroke-width:4.17px;"/><path d="M608.321,1875.26l0,91.667" style="fill:none;fill-rule:nonzero;stroke:#181818;stroke-width:4.17px;"/><path d="M591.655,1925.26l16.666,41.667l16.667,-41.667l-16.667,16.667l-16.666,-16.667Z" style="fill:#181818;fill-rule:nonzero;stroke:#181818;stroke-width:4.17px;"/><path d="M1993.15,1875.26l41.667,0" style="fill:none;fill-rule:nonzero;stroke:#181818;stroke-width:4.17px;"/><path d="M2034.82,1875.26l-0,91.667" style="fill:none;fill-rule:nonzero;stroke:#181818;stroke-width:4.17px;"/><path d="M2018.15,1925.26l16.667,41.667l16.666,-41.667l-16.666,16.667l-16.667,-16.667Z" style="fill:#181818;fill-rule:nonzero;stroke:#181818;stroke-width:4.17px;"/><path d="M608.321,2108.46l0,75" style="fill:none;fill-rule:nonzero;stroke:#181818;stroke-width:4.17px;"/><path d="M608.321,2183.46l663.248,-0" style="fill:none;fill-rule:nonzero;stroke:#181818;stroke-width:4.17px;"/><path d="M1229.9,2166.79l41.667,16.667l-41.667,16.666l16.667,-16.666l-16.667,-16.667Z" style="fill:#181818;fill-rule:nonzero;stroke:#181818;stroke-width:4.17px;"/><path d="M2034.82,2108.46l-0,75" style="fill:none;fill-rule:nonzero;stroke:#181818;stroke-width:4.17px;"/><path d="M2034.82,2183.46l-663.248,-0" style="fill:none;fill-rule:nonzero;stroke:#181818;stroke-width:4.17px;"/><path d="M1413.24,2166.79l-41.666,16.667l41.666,16.666l-16.666,-16.666l16.666,-16.667Z" style="fill:#181818;fill-rule:nonzero;stroke:#181818;stroke-width:4.17px;"/><path d="M1321.57,1741.92l-0,83.333" style="fill:none;fill-rule:nonzero;stroke:#181818;stroke-width:4.17px;"/><path d="M1304.9,1783.59l16.667,41.666l16.666,-41.666l-16.666,16.666l-16.667,-16.666Z" style="fill:#181818;fill-rule:nonzero;stroke:#181818;stroke-width:4.17px;"/><path d="M1321.57,2233.46l-0,133.333" style="fill:none;fill-rule:nonzero;stroke:#181818;stroke-width:4.17px;"/><path d="M1304.9,2325.13l16.667,41.667l16.666,-41.667l-16.666,16.667l-16.667,-16.667Z" style="fill:#181818;fill-rule:nonzero;stroke:#181818;stroke-width:4.17px;"/><path d="M1321.57,2508.33l-0,83.334" style="fill:none;fill-rule:nonzero;stroke:#181818;stroke-width:4.17px;"/><path d="M1304.9,2550l16.667,41.667l16.666,-41.667l-16.666,16.667l-16.667,-16.667Z" style="fill:#181818;fill-rule:nonzero;stroke:#181818;stroke-width:4.17px;"/><path d="M1321.57,2733.2l-0,133.334" style="fill:none;fill-rule:nonzero;stroke:#181818;stroke-width:4.17px;"/><path d="M1304.9,2824.87l16.667,41.667l16.666,-41.667l-16.666,16.667l-16.667,-16.667Z" style="fill:#181818;fill-rule:nonzero;stroke:#181818;stroke-width:4.17px;"/><path d="M1321.57,3007.47l-0,1022.4" style="fill:none;fill-rule:nonzero;stroke:#181818;stroke-width:4.17px;"/><path d="M1304.9,3988.21l16.667,41.667l16.666,-41.667l-16.666,16.667l-16.667,-16.667Z" style="fill:#181818;fill-rule:nonzero;stroke:#181818;stroke-width:4.17px;"/></g></svg>