<?xml version="1.0" encoding="UTF-8" standalone="no"?><!DOCTYPE svg PUBLIC "-//W3C//DTD SVG 1.1//EN" "http://www.w3.org/Graphics/SVG/1.1/DTD/svg11.dtd"><svg width="100%" height="100%" viewBox="0 0 4759 13925" version="1.1" xmlns="http://www.w3.org/2000/svg" xmlns:xlink="http://www.w3.org/1999/xlink" xml:space="preserve" xmlns:serif="http://www.serif.com/" style="fill-rule:evenodd;clip-rule:evenodd;"><rect x="190.971" y="190.971" width="4381.29" height="8695" style="fill:none;stroke:#000;stroke-width:26.04px;"/><path d="M2746.95,190.971l0,161.404l-173.608,173.613l-2382.38,-0" style="fill:none;fill-rule:nonzero;stroke:#000;stroke-width:26.04px;"/><text id="req" x="243.054px" y="433.942px" style="font-family:'ArialMT', 'Arial', sans-serif;font-size:243.054px;">Requirement Phase</text><path d="M4170.75,916.613c0,-119.771 -97.242,-217.013 -217.017,-217.013l-3144.19,0c-119.771,0 -217.013,97.242 -217.013,217.013l0,155.708c0,119.775 97.242,217.012 217.013,217.012l3144.19,0c119.775,0 217.017,-97.237 217.017,-217.012l0,-155.709Z" style="fill:#f1f1f1;stroke:#181818;stroke-width:8.67px;"/><text x="766.125px" y="1066.59px" style="font-family:'ArialMT', 'Arial', sans-serif;font-size:208.333px;">Clariﬁcation of problem or task</text><path d="M4355.17,1853.57c-0,-119.775 -97.242,-217.017 -217.017,-217.017l-3513.05,0c-119.775,0 -217.017,97.242 -217.017,217.017l0,155.708c0,119.771 97.242,217.013 217.017,217.013l3513.05,-0c119.775,-0 217.017,-97.242 217.017,-217.013l-0,-155.708Z" style="fill:#f1f1f1;stroke:#181818;stroke-width:8.67px;"/><text x="581.7px" y="2003.55px" style="font-family:'ArialMT', 'Arial', sans-serif;font-size:208.333px;">Deﬁne Objectives &amp; Requirements</text><rect x="364.583" y="2399.9" width="4034.08" height="5340.79" style="fill:none;stroke:#000;stroke-width:26.04px;"/><path d="M3238.15,2399.9l0,161.404l-173.612,173.609l-2699.96,-0" style="fill:none;fill-rule:nonzero;stroke:#000;stroke-width:26.04px;"/><text id="ccs_selection" x="416.667px" y="2642.88px" style="font-family:'ArialMT', 'Arial', sans-serif;font-size:243.054px;">CCS Selection Process</text><rect x="818.633" y="2922.45" width="3125.98" height="543.35" style="fill:none;stroke:#000;stroke-width:26.04px;"/><path d="M3771.01,2922.45l0,161.404l-173.612,173.608l-2778.76,0" style="fill:none;fill-rule:nonzero;stroke:#000;stroke-width:26.04px;"/><g id="_01_1_init" serif:id="01_1_init"><text x="870.717px" y="3165.42px" style="font-family:'ArialMT', 'Arial', sans-serif;font-size:243.054px;">CCS Initial</text><text x="2072.94px" y="3165.42px" style="font-family:'ArialMT', 'Arial', sans-serif;font-size:243.054px;">Assessment</text></g><rect x="1300.12" y="3653.33" width="2163.02" height="543.35" style="fill:none;stroke:#000;stroke-width:26.04px;"/><path d="M3289.53,3653.33l0,161.404l-173.613,173.613l-1815.8,-0" style="fill:none;fill-rule:nonzero;stroke:#000;stroke-width:26.04px;"/><text id="_01_2_pcf" serif:id="01_2_pcf" x="1352.2px" y="3896.3px" style="font-family:'ArialMT', 'Arial', sans-serif;font-size:243.054px;">PCF Evaluation</text><rect x="538.196" y="4384.21" width="3686.86" height="543.35" style="fill:none;stroke:#000;stroke-width:26.04px;"/><path d="M4051.45,4384.21l-0,161.4l-173.613,173.613l-3339.64,-0" style="fill:none;fill-rule:nonzero;stroke:#000;stroke-width:26.04px;"/><text id="_01_3_params" serif:id="01_3_params" x="590.279px" y="4627.17px" style="font-family:'ArialMT', 'Arial', sans-serif;font-size:243.054px;">Determine CCS Parameters</text><rect x="768.788" y="5115.08" width="3225.68" height="543.35" style="fill:none;stroke:#000;stroke-width:26.04px;"/><path d="M3820.85,5115.08l0,161.404l-173.612,173.613l-2878.45,-0" style="fill:none;fill-rule:nonzero;stroke:#000;stroke-width:26.04px;"/><g id="_01_4_neutrality" serif:id="01_4_neutrality"><text x="820.871px" y="5358.04px" style="font-family:'ArialMT', 'Arial', sans-serif;font-size:243.056px;">Evaluate CO</text><text x="2198.86px" y="5358.04px" style="font-family:'MicrosoftSansSerif', 'Microsoft Sans Serif', sans-serif;font-size:243.056px;">₂</text><text x="2347.33px" y="5358.04px" style="font-family:'ArialMT', 'Arial', sans-serif;font-size:243.056px;">Neutrality</text></g><path d="M3223.57,6222.67c-0,-119.775 -97.242,-217.013 -217.013,-217.013l-1249.87,0c-119.771,0 -217.013,97.238 -217.013,217.013l0,155.708c0,119.771 97.242,217.013 217.013,217.013l1249.87,-0c119.771,-0 217.013,-97.242 217.013,-217.013l-0,-155.708Z" style="fill:#f1f1f1;stroke:#181818;stroke-width:8.67px;"/><text x="1713.29px" y="6372.62px" style="font-family:'ArialMT', 'Arial', sans-serif;font-size:208.333px;">CCS Ranking</text><path d="M3279.98,7159.62c0,-119.771 -97.241,-217.012 -217.016,-217.012l-1362.67,-0.001c-119.775,0.001 -217.017,97.242 -217.017,217.013l-0,155.708c-0,119.775 97.242,217.017 217.017,217.017l1362.67,0c119.775,0 217.016,-97.242 217.016,-217.017l0,-155.708Z" style="fill:#f1f1f1;stroke:#181818;stroke-width:8.67px;"/><text x="1656.88px" y="7309.62px" style="font-family:'ArialMT', 'Arial', sans-serif;font-size:208.333px;">CCS Selection</text><path d="M4045.46,8304.92c0,-119.771 -97.237,-217.013 -217.012,-217.013l-2893.64,0c-119.775,0 -217.012,97.242 -217.012,217.013l-0,155.708c-0,119.775 97.237,217.017 217.012,217.017l2893.64,-0c119.775,-0 217.012,-97.242 217.012,-217.017l0,-155.708Z" style="fill:#f1f1f1;stroke:#181818;stroke-width:8.67px;"/><text x="891.4px" y="8454.88px" style="font-family:'ArialMT', 'Arial', sans-serif;font-size:208.333px;">Update List of Requirements</text><rect x="581.633" y="9073.5" width="3599.99" height="1428.22" style="fill:none;stroke:#000;stroke-width:26.04px;"/><path d="M4008.01,9073.5l0,161.404l-173.612,173.613l-3252.76,-0" style="fill:none;fill-rule:nonzero;stroke:#000;stroke-width:26.04px;"/><text id="sol" x="633.717px" y="9316.46px" style="font-family:'ArialMT', 'Arial', sans-serif;font-size:243.054px;">Solution Exploration Phase</text><rect x="988.404" y="10689.2" width="2786.44" height="1428.22" style="fill:none;stroke:#000;stroke-width:26.04px;"/><path d="M3601.24,10689.2l-0.001,161.4l-173.612,173.613l-2439.22,-0" style="fill:none;fill-rule:nonzero;stroke:#000;stroke-width:26.04px;"/><text id="dev" x="1040.49px" y="10932.2px" style="font-family:'ArialMT', 'Arial', sans-serif;font-size:243.054px;">Development Phase</text><rect x="632.013" y="12305" width="3499.23" height="1428.22" style="fill:none;stroke:#000;stroke-width:26.04px;"/><path d="M3957.63,12305l0,161.4l-173.608,173.612l-3152.01,0.001" style="fill:none;fill-rule:nonzero;stroke:#000;stroke-width:26.04px;"/><text id="int" x="684.096px" y="12548px" style="font-family:'ArialMT', 'Arial', sans-serif;font-size:243.054px;">Product Integration Phase</text><path d="M2381.62,1289.33l0,347.221" style="fill:none;fill-rule:nonzero;stroke:#181818;stroke-width:17.38px;"/><path d="M2312.18,1462.95l69.446,173.608l69.446,-173.608l-69.446,69.442l-69.446,-69.442Z" style="fill:#181818;fill-rule:nonzero;stroke:#181818;stroke-width:17.38px;"/><path d="M2381.62,2226.29l0,3779.37" style="fill:none;fill-rule:nonzero;stroke:#181818;stroke-width:17.38px;"/><path d="M2312.18,5832.04l69.446,173.612l69.446,-173.612l-69.446,69.445l-69.446,-69.445Z" style="fill:#181818;fill-rule:nonzero;stroke:#181818;stroke-width:17.38px;"/><path d="M2381.62,6595.38l0,347.221" style="fill:none;fill-rule:nonzero;stroke:#181818;stroke-width:17.38px;"/><path d="M2312.18,6769l69.446,173.613l69.446,-173.613l-69.446,69.446l-69.446,-69.446Z" style="fill:#181818;fill-rule:nonzero;stroke:#181818;stroke-width:17.38px;"/><path d="M2381.62,7532.33l0,555.555" style="fill:none;fill-rule:nonzero;stroke:#181818;stroke-width:17.38px;"/><path d="M2312.18,7914.29l69.446,173.612l69.446,-173.612l-69.446,69.445l-69.446,-69.445Z" style="fill:#181818;fill-rule:nonzero;stroke:#181818;stroke-width:17.38px;"/><path d="M2381.62,8677.33l0,4257.83" style="fill:none;fill-rule:nonzero;stroke:#181818;stroke-width:17.38px;"/><path d="M2312.18,12761.5l69.446,173.608l69.446,-173.612l-69.446,69.445l-69.446,-69.445l0,0.004Z" style="fill:#181818;fill-rule:nonzero;stroke:#181818;stroke-width:17.38px;"/></svg>