<?xml version="1.0" encoding="UTF-8" standalone="no"?><!DOCTYPE svg PUBLIC "-//W3C//DTD SVG 1.1//EN" "http://www.w3.org/Graphics/SVG/1.1/DTD/svg11.dtd"><svg width="100%" height="100%" viewBox="0 0 1500 2755" version="1.1" xmlns="http://www.w3.org/2000/svg" xmlns:xlink="http://www.w3.org/1999/xlink" xml:space="preserve" xmlns:serif="http://www.serif.com/" style="fill-rule:evenodd;clip-rule:evenodd;"><g><rect x="424.27" y="45.833" width="655.103" height="130.404" style="fill:none;stroke:#000;stroke-width:6.25px;"/><path d="M1037.7,45.833l0,38.737l-41.666,41.667l-571.769,0" style="fill:none;fill-rule:nonzero;stroke:#000;stroke-width:6.25px;"/><text id="req" x="436.77px" y="104.146px" style="font-family:'ArialMT', 'Arial', sans-serif;font-size:58.333px;">Requirement Phase</text><rect x="45.833" y="217.904" width="1411.98" height="1719.03" style="fill:none;stroke:#000;stroke-width:6.25px;"/><path d="M868.164,217.904l0,38.737l-41.666,41.666l-780.665,0" style="fill:none;fill-rule:nonzero;stroke:#000;stroke-width:6.25px;"/><text id="sol" x="58.333px" y="276.217px" style="font-family:'ArialMT', 'Arial', sans-serif;font-size:58.333px;">Solution Exploration Phase</text><rect x="87.5" y="343.315" width="1328.64" height="130.404" style="fill:none;stroke:#000;stroke-width:6.25px;"/><path d="M1374.48,343.315l0,38.737l-41.667,41.666l-1245.31,0" style="fill:none;fill-rule:nonzero;stroke:#000;stroke-width:6.25px;"/><text x="118.543px" y="401.628px" style="font-family:'ArialMT', 'Arial', sans-serif;font-size:58.333px;">Determine Functions and <tspan x="785.417px 821.049px " y="401.628px 401.628px ">Th</tspan>eir Structures</text><rect x="193.429" y="518.725" width="1116.79" height="1017.38" style="fill:none;stroke:#000;stroke-width:6.25px;"/><path d="M1268.55,518.725l-0,38.737l-41.667,41.667l-1033.45,0" style="fill:none;fill-rule:nonzero;stroke:#000;stroke-width:6.25px;"/><text x="205.929px" y="577.039px" style="font-family:'ArialMT', 'Arial', sans-serif;font-size:58.333px;">Assess CCS Integration approaches</text><path d="M1154.57,722.046c-0,-28.746 -23.338,-52.083 -52.084,-52.083l-701.334,-0c-28.746,-0 -52.084,23.337 -52.084,52.083l0,37.37c0,28.745 23.338,52.083 52.084,52.083l701.334,0c28.746,0 52.084,-23.338 52.084,-52.083l-0,-37.37Z" style="fill:#f1f1f1;stroke:#181818;stroke-width:2.08px;"/><text x="390.737px" y="758.04px" style="font-family:'ArialMT', 'Arial', sans-serif;font-size:50px;">Functional structure analysis</text><path d="M1197.79,946.916c-0,-28.746 -23.338,-52.083 -52.084,-52.083l-787.76,-0c-28.746,-0 -52.084,23.337 -52.084,52.083l0,37.37c0,28.745 23.338,52.083 52.084,52.083l787.76,0c28.746,0 52.084,-23.338 52.084,-52.083l-0,-37.37Z" style="fill:#f1f1f1;stroke:#181818;stroke-width:2.08px;"/><text x="347.524px" y="982.91px" style="font-family:'ArialMT', 'Arial', sans-serif;font-size:50px;">Develop Integration <tspan x="792.275px 825.625px " y="982.91px 982.91px ">Ap</tspan>proaches</text><path d="M1204.07,1171.79c0,-28.745 -23.338,-52.083 -52.083,-52.083l-800.334,0c-28.745,0 -52.083,23.338 -52.083,52.083l-0,37.37c-0,28.746 23.338,52.084 52.083,52.084l800.334,-0c28.745,-0 52.083,-23.338 52.083,-52.084l0,-37.37Z" style="fill:#f1f1f1;stroke:#181818;stroke-width:2.08px;"/><text x="341.238px" y="1207.78px" style="font-family:'ArialMT', 'Arial', sans-serif;font-size:50px;">Evaluate Integration <tspan x="797.121px 830.471px " y="1207.78px 1207.78px ">Ap</tspan>proaches</text><path d="M1249.23,1396.65c-0,-28.745 -23.338,-52.083 -52.083,-52.083l-890.642,0c-28.745,0 -52.083,23.338 -52.083,52.083l0,37.37c0,28.746 23.338,52.084 52.083,52.084l890.642,-0c28.745,-0 52.083,-23.338 52.083,-52.084l-0,-37.37Z" style="fill:#f1f1f1;stroke:#181818;stroke-width:2.08px;"/><text x="296.084px" y="1432.65px" style="font-family:'ArialMT', 'Arial', sans-serif;font-size:50px;">Pre-select CCS Integration <tspan x="901.919px 935.268px " y="1432.65px 1432.65px ">Ap</tspan>proach</text><rect x="390.83" y="1581.12" width="721.981" height="130.404" style="fill:none;stroke:#000;stroke-width:6.25px;"/><path d="M1071.14,1581.12l-0,38.736l-41.667,41.667l-638.648,0" style="fill:none;fill-rule:nonzero;stroke:#000;stroke-width:6.25px;"/><text x="403.33px" y="1639.43px" style="font-family:'ArialMT', 'Arial', sans-serif;font-size:58.333px;">Solution Identiﬁcation</text><rect x="132.959" y="1756.53" width="1237.72" height="130.404" style="fill:none;stroke:#000;stroke-width:6.25px;"/><path d="M1329.02,1756.53l0,38.737l-41.666,41.666l-1154.39,0" style="fill:none;fill-rule:nonzero;stroke:#000;stroke-width:6.25px;"/><text x="145.459px" y="1814.84px" style="font-family:'ArialMT', 'Arial', sans-serif;font-size:58.333px;">Assess and Select the Solution Concept</text><rect x="417.448" y="1981.94" width="668.746" height="342.773" style="fill:none;stroke:#000;stroke-width:6.25px;"/><path d="M1044.53,1981.94l0,38.737l-41.667,41.666l-585.412,0" style="fill:none;fill-rule:nonzero;stroke:#000;stroke-width:6.25px;"/><text id="dev" x="429.948px" y="2040.25px" style="font-family:'ArialMT', 'Arial', sans-serif;font-size:58.333px;">Development Phase</text><rect x="331.913" y="2369.72" width="839.815" height="342.773" style="fill:none;stroke:#000;stroke-width:6.25px;"/><path d="M1130.06,2369.72l-0,38.737l-41.667,41.667l-756.482,0" style="fill:none;fill-rule:nonzero;stroke:#000;stroke-width:6.25px;"/><text id="int" x="344.413px" y="2428.03px" style="font-family:'ArialMT', 'Arial', sans-serif;font-size:58.333px;">Product Integration Phase</text><path d="M751.821,811.499l-0,83.334" style="fill:none;fill-rule:nonzero;stroke:#181818;stroke-width:4.17px;"/><path d="M735.154,853.166l16.667,41.667l16.667,-41.667l-16.667,16.667l-16.667,-16.667Z" style="fill:#181818;fill-rule:nonzero;stroke:#181818;stroke-width:4.17px;"/><path d="M751.821,1036.37l-0,83.333" style="fill:none;fill-rule:nonzero;stroke:#181818;stroke-width:4.17px;"/><path d="M735.154,1078.04l16.667,41.667l16.667,-41.667l-16.667,16.667l-16.667,-16.667Z" style="fill:#181818;fill-rule:nonzero;stroke:#181818;stroke-width:4.17px;"/><path d="M751.821,1261.24l-0,83.333" style="fill:none;fill-rule:nonzero;stroke:#181818;stroke-width:4.17px;"/><path d="M735.154,1302.9l16.667,41.667l16.667,-41.667l-16.667,16.667l-16.667,-16.667Z" style="fill:#181818;fill-rule:nonzero;stroke:#181818;stroke-width:4.17px;"/><path d="M751.821,147.07l-0,522.893" style="fill:none;fill-rule:nonzero;stroke:#181818;stroke-width:4.17px;"/><path d="M735.154,628.296l16.667,41.667l16.667,-41.667l-16.667,16.666l-16.667,-16.666Z" style="fill:#181818;fill-rule:nonzero;stroke:#181818;stroke-width:4.17px;"/><path d="M751.821,1485.34l-0,1035.62" style="fill:none;fill-rule:nonzero;stroke:#181818;stroke-width:4.17px;"/><path d="M735.154,2479.29l16.667,41.666l16.667,-41.666l-16.667,16.666l-16.667,-16.666Z" style="fill:#181818;fill-rule:nonzero;stroke:#181818;stroke-width:4.17px;"/></g></svg>