<?xml version="1.0" encoding="UTF-8" standalone="no"?><!DOCTYPE svg PUBLIC "-//W3C//DTD SVG 1.1//EN" "http://www.w3.org/Graphics/SVG/1.1/DTD/svg11.dtd"><svg width="100%" height="100%" viewBox="0 0 1438 2992" version="1.1" xmlns="http://www.w3.org/2000/svg" xmlns:xlink="http://www.w3.org/1999/xlink" xml:space="preserve" xmlns:serif="http://www.serif.com/" style="fill-rule:evenodd;clip-rule:evenodd;"><g><rect x="399.815" y="45.833" width="655.103" height="130.404" style="fill:none;stroke:#000;stroke-width:6.25px;"/><path d="M1013.25,45.833l-0,38.737l-41.667,41.667l-571.769,0" style="fill:none;fill-rule:nonzero;stroke:#000;stroke-width:6.25px;"/><text id="req" x="412.315px" y="104.146px" style="font-family:'ArialMT', 'Arial', sans-serif;font-size:58.333px;">Requirement Phase</text><rect x="295.368" y="221.244" width="863.997" height="130.404" style="fill:none;stroke:#000;stroke-width:6.25px;"/><path d="M1117.7,221.244l0,38.737l-41.666,41.667l-780.665,-0" style="fill:none;fill-rule:nonzero;stroke:#000;stroke-width:6.25px;"/><text id="sol" x="307.868px" y="279.558px" style="font-family:'ArialMT', 'Arial', sans-serif;font-size:58.333px;">Solution Exploration Phase</text><rect x="392.993" y="396.655" width="668.746" height="130.404" style="fill:none;stroke:#000;stroke-width:6.25px;"/><path d="M1020.07,396.655l-0,38.737l-41.667,41.667l-585.413,-0" style="fill:none;fill-rule:nonzero;stroke:#000;stroke-width:6.25px;"/><text id="dev" x="405.493px" y="454.968px" style="font-family:'ArialMT', 'Arial', sans-serif;font-size:58.333px;">Development Phase</text><rect x="45.833" y="568.725" width="1349.66" height="2152.62" style="fill:none;stroke:#000;stroke-width:6.25px;"/><path d="M843.982,568.725l0,38.737l-41.667,41.667l-756.482,0" style="fill:none;fill-rule:nonzero;stroke:#000;stroke-width:6.25px;"/><text id="int" x="58.333px" y="627.039px" style="font-family:'ArialMT', 'Arial', sans-serif;font-size:58.333px;">Product Integration Phase</text><path d="M1175.01,772.046c0,-28.746 -23.338,-52.083 -52.083,-52.083l-791.13,-0c-28.745,-0 -52.083,23.337 -52.083,52.083l-0,37.37c-0,28.745 23.338,52.083 52.083,52.083l791.13,0c28.745,0 52.083,-23.338 52.083,-52.083l0,-37.37Z" style="fill:#f1f1f1;stroke:#181818;stroke-width:2.08px;"/><text x="321.385px" y="808.04px" style="font-family:'ArialMT', 'Arial', sans-serif;font-size:50px;">Combine Modules into a Product</text><path d="M1195.57,1229.04c-0,-28.746 -23.338,-52.084 -52.084,-52.084l-832.242,0c-28.746,0 -52.084,23.338 -52.084,52.084l0,37.369c0,28.746 23.338,52.084 52.084,52.084l832.242,-0c28.746,-0 52.084,-23.338 52.084,-52.084l-0,-37.369Z" style="fill:#f1f1f1;stroke:#181818;stroke-width:2.08px;"/><text x="300.828px" y="1265.04px" style="font-family:'ArialMT', 'Arial', sans-serif;font-size:50px;">Reﬁne Interfaces and Subsystems</text><path d="M225.908,944.833l1002.92,-0l50,50l-50,50l-1002.92,-0l-50,-50l50,-50Z" style="fill:#f1f1f1;fill-rule:nonzero;stroke:#181818;stroke-width:2.08px;"/><text x="744.033px" y="1087.38px" style="font-family:'ArialMT', 'Arial', sans-serif;font-size:45.833px;">No</text><text x="225.908px" y="1010.7px" style="font-family:'ArialMT', 'Arial', sans-serif;font-size:45.833px;">Are subsystems and interfaces compatible?</text><text x="95.833px" y="984.023px" style="font-family:'ArialMT', 'Arial', sans-serif;font-size:45.833px;">Y<tspan x="122.196px 147.687px " y="984.023px 984.023px ">es</tspan></text><path d="M1197.28,1545.58c0,-28.745 -23.338,-52.083 -52.083,-52.083l-835.661,-0c-28.746,-0 -52.083,23.338 -52.083,52.083l-0,37.37c-0,28.746 23.337,52.084 52.083,52.084l835.661,-0c28.745,-0 52.083,-23.338 52.083,-52.084l0,-37.37Z" style="fill:#f1f1f1;stroke:#181818;stroke-width:2.08px;"/><text x="299.119px" y="1581.57px" style="font-family:'ArialMT', 'Arial', sans-serif;font-size:50px;">Perform Initial Product Evaluation</text><path d="M1144.17,2002.58c0,-28.746 -23.338,-52.083 -52.083,-52.083l-729.436,-0c-28.745,-0 -52.083,23.337 -52.083,52.083l0,37.37c0,28.745 23.338,52.083 52.083,52.083l729.436,0c28.745,0 52.083,-23.338 52.083,-52.083l0,-37.37Z" style="fill:#f1f1f1;stroke:#181818;stroke-width:2.08px;"/><text x="352.232px" y="2038.57px" style="font-family:'ArialMT', 'Arial', sans-serif;font-size:50px;">Reﬁne Overall Product Design</text><path d="M1112.21,2265.35c0,-28.746 -23.338,-52.084 -52.083,-52.084l-665.519,0c-28.746,0 -52.084,23.338 -52.084,52.084l0,37.369c0,28.746 23.338,52.084 52.084,52.084l665.519,-0c28.745,-0 52.083,-23.338 52.083,-52.084l0,-37.369Z" style="fill:#f1f1f1;stroke:#181818;stroke-width:2.08px;"/><text x="384.19px" y="2301.35px" style="font-family:'ArialMT', 'Arial', sans-serif;font-size:50px;">Perform Product Evaluation</text><path d="M275.568,1718.37l903.597,0l50,50l-50,50l-903.597,0l-50,-50l50,-50Z" style="fill:#f1f1f1;fill-rule:nonzero;stroke:#181818;stroke-width:2.08px;"/><text x="744.033px" y="1860.91px" style="font-family:'ArialMT', 'Arial', sans-serif;font-size:45.833px;">No</text><text x="275.568px" y="1784.23px" style="font-family:'ArialMT', 'Arial', sans-serif;font-size:45.833px;">Overall design meets all requirements?</text><text x="145.494px" y="1757.56px" style="font-family:'ArialMT', 'Arial', sans-serif;font-size:45.833px;">Y<tspan x="171.857px 197.347px " y="1757.56px 1757.56px ">es</tspan></text><path d="M1267.04,2581.89c-0,-28.746 -23.338,-52.084 -52.083,-52.084l-975.187,0c-28.746,0 -52.084,23.338 -52.084,52.084l0,37.37c0,28.745 23.338,52.083 52.084,52.083l975.187,0c28.745,0 52.083,-23.338 52.083,-52.083l-0,-37.37Z" style="fill:#f1f1f1;stroke:#181818;stroke-width:2.08px;"/><text x="229.356px" y="2617.88px" style="font-family:'ArialMT', 'Arial', sans-serif;font-size:50px;">Provide Final Integrated Product Design</text><path d="M1224.56,2856.76c-0.001,-28.746 -23.338,-52.084 -52.084,-52.084l-890.226,0c-28.746,0 -52.083,23.338 -52.083,52.084l-0,37.37c-0,28.745 23.337,52.083 52.083,52.083l890.226,0c28.746,0 52.083,-23.338 52.083,-52.083l0,-37.37Z" style="fill:#f1f1f1;stroke:#181818;stroke-width:2.08px;"/><text x="271.836px" y="2892.75px" style="font-family:'ArialMT', 'Arial', sans-serif;font-size:50px;">Create Final Product Documentation</text><path d="M727.366,147.07l0,572.893" style="fill:none;fill-rule:nonzero;stroke:#181818;stroke-width:4.17px;"/><path d="M710.7,678.296l16.666,41.667l16.667,-41.667l-16.667,16.667l-16.666,-16.667Z" style="fill:#181818;fill-rule:nonzero;stroke:#181818;stroke-width:4.17px;"/><path d="M727.366,1044.83l0,132.126" style="fill:none;fill-rule:nonzero;stroke:#181818;stroke-width:4.17px;"/><path d="M710.7,1135.29l16.666,41.666l16.667,-41.667l-16.667,16.667l-16.666,-16.667Z" style="fill:#181818;fill-rule:nonzero;stroke:#181818;stroke-width:4.17px;"/><path d="M727.366,1318.5l0,41.667" style="fill:none;fill-rule:nonzero;stroke:#181818;stroke-width:4.17px;"/><path d="M727.366,1360.16l601.459,-0" style="fill:none;fill-rule:nonzero;stroke:#181818;stroke-width:4.17px;"/><path d="M1312.16,1212.72l16.667,-41.667l16.667,41.667l-16.667,-16.667l-16.667,16.667Z" style="fill:#181818;fill-rule:nonzero;stroke:#181818;stroke-width:4.17px;"/><path d="M1328.83,994.833l0,365.33" style="fill:none;fill-rule:nonzero;stroke:#181818;stroke-width:4.17px;"/><path d="M1328.83,994.833l-50,-0" style="fill:none;fill-rule:nonzero;stroke:#181818;stroke-width:4.17px;"/><path d="M1320.49,978.166l-41.667,16.667l41.667,16.666l-16.667,-16.667l16.667,-16.666Z" style="fill:#181818;fill-rule:nonzero;stroke:#181818;stroke-width:4.17px;"/><path d="M175.908,994.833l-50.001,-0" style="fill:none;fill-rule:nonzero;stroke:#181818;stroke-width:4.17px;"/><path d="M109.241,1154.38l16.667,41.667l16.666,-41.667l-16.667,16.667l-16.666,-16.667Z" style="fill:#181818;fill-rule:nonzero;stroke:#181818;stroke-width:4.17px;"/><path d="M125.908,994.833l-0,415.33" style="fill:none;fill-rule:nonzero;stroke:#181818;stroke-width:4.17px;"/><path d="M125.908,1410.16l601.458,-0" style="fill:none;fill-rule:nonzero;stroke:#181818;stroke-width:4.17px;"/><path d="M727.366,1410.16l0,83.333" style="fill:none;fill-rule:nonzero;stroke:#181818;stroke-width:4.17px;"/><path d="M710.7,1451.83l16.666,41.667l16.667,-41.667l-16.667,16.667l-16.666,-16.667Z" style="fill:#181818;fill-rule:nonzero;stroke:#181818;stroke-width:4.17px;"/><path d="M727.366,861.499l0,83.334" style="fill:none;fill-rule:nonzero;stroke:#181818;stroke-width:4.17px;"/><path d="M710.7,903.166l16.666,41.667l16.667,-41.667l-16.667,16.667l-16.666,-16.667Z" style="fill:#181818;fill-rule:nonzero;stroke:#181818;stroke-width:4.17px;"/><path d="M727.366,2092.03l0,121.24" style="fill:none;fill-rule:nonzero;stroke:#181818;stroke-width:4.17px;"/><path d="M710.7,2171.6l16.666,41.666l16.667,-41.666l-16.667,16.666l-16.666,-16.666Z" style="fill:#181818;fill-rule:nonzero;stroke:#181818;stroke-width:4.17px;"/><path d="M727.366,1818.37l0,132.128" style="fill:none;fill-rule:nonzero;stroke:#181818;stroke-width:4.17px;"/><path d="M710.7,1908.83l16.666,41.667l16.667,-41.667l-16.667,16.667l-16.666,-16.667Z" style="fill:#181818;fill-rule:nonzero;stroke:#181818;stroke-width:4.17px;"/><path d="M727.366,2354.8l0,41.667" style="fill:none;fill-rule:nonzero;stroke:#181818;stroke-width:4.17px;"/><path d="M727.366,2396.47l551.799,0" style="fill:none;fill-rule:nonzero;stroke:#181818;stroke-width:4.17px;"/><path d="M1262.5,2129.94l16.667,-41.667l16.666,41.667l-16.666,-16.667l-16.667,16.667Z" style="fill:#181818;fill-rule:nonzero;stroke:#181818;stroke-width:4.17px;"/><path d="M1279.16,1768.37l-0,628.107" style="fill:none;fill-rule:nonzero;stroke:#181818;stroke-width:4.17px;"/><path d="M1279.16,1768.37l-50,0" style="fill:none;fill-rule:nonzero;stroke:#181818;stroke-width:4.17px;"/><path d="M1270.83,1751.7l-41.666,16.666l41.666,16.667l-16.666,-16.667l16.666,-16.666Z" style="fill:#181818;fill-rule:nonzero;stroke:#181818;stroke-width:4.17px;"/><path d="M225.568,1768.37l-50,0" style="fill:none;fill-rule:nonzero;stroke:#181818;stroke-width:4.17px;"/><path d="M158.901,2071.6l16.667,41.666l16.666,-41.667l-16.666,16.667l-16.667,-16.667Z" style="fill:#181818;fill-rule:nonzero;stroke:#181818;stroke-width:4.17px;"/><path d="M175.568,1768.37l-0,678.107" style="fill:none;fill-rule:nonzero;stroke:#181818;stroke-width:4.17px;"/><path d="M175.568,2446.47l551.798,0" style="fill:none;fill-rule:nonzero;stroke:#181818;stroke-width:4.17px;"/><path d="M727.366,2446.47l0,83.333" style="fill:none;fill-rule:nonzero;stroke:#181818;stroke-width:4.17px;"/><path d="M710.7,2488.14l16.666,41.666l16.667,-41.666l-16.667,16.666l-16.666,-16.666Z" style="fill:#181818;fill-rule:nonzero;stroke:#181818;stroke-width:4.17px;"/><path d="M727.366,1635.03l0,83.333" style="fill:none;fill-rule:nonzero;stroke:#181818;stroke-width:4.17px;"/><path d="M710.7,1676.7l16.666,41.666l16.667,-41.666l-16.667,16.666l-16.666,-16.666Z" style="fill:#181818;fill-rule:nonzero;stroke:#181818;stroke-width:4.17px;"/><path d="M727.366,2671.34l0,133.333" style="fill:none;fill-rule:nonzero;stroke:#181818;stroke-width:4.17px;"/><path d="M710.7,2763.01l16.666,41.666l16.667,-41.666l-16.667,16.666l-16.666,-16.666Z" style="fill:#181818;fill-rule:nonzero;stroke:#181818;stroke-width:4.17px;"/></g></svg>