<?xml version="1.0" encoding="UTF-8" standalone="no"?><!DOCTYPE svg PUBLIC "-//W3C//DTD SVG 1.1//EN" "http://www.w3.org/Graphics/SVG/1.1/DTD/svg11.dtd"><svg width="100%" height="100%" viewBox="0 0 1142 2325" version="1.1" xmlns="http://www.w3.org/2000/svg" xmlns:xlink="http://www.w3.org/1999/xlink" xml:space="preserve" xmlns:serif="http://www.serif.com/" style="fill-rule:evenodd;clip-rule:evenodd;"><g><circle cx="571.59" cy="83.333" r="41.667" style="fill:#222;stroke:#222;stroke-width:4.17px;"/><rect x="45.833" y="166.667" width="1051.51" height="2115.97" style="fill:none;stroke:#000;stroke-width:6.25px;"/><path d="M659.269,166.667l0,38.737l-41.666,41.666l-571.77,0" style="fill:none;fill-rule:nonzero;stroke:#000;stroke-width:6.25px;"/><text x="58.333px" y="224.98px" style="font-family:'ArialMT', 'Arial', sans-serif;font-size:58.333px;">Requirement Phase</text><path d="M1000.98,369.987c-0,-28.745 -23.338,-52.083 -52.084,-52.083l-754.606,-0c-28.745,-0 -52.083,23.338 -52.083,52.083l-0,37.37c-0,28.746 23.338,52.083 52.083,52.083l754.606,0c28.746,0 52.084,-23.337 52.084,-52.083l-0,-37.37Z" style="fill:#f1f1f1;stroke:#181818;stroke-width:2.08px;"/><text x="183.87px" y="405.981px" style="font-family:'ArialMT', 'Arial', sans-serif;font-size:50px;">Clariﬁcation of problem or task</text><path d="M1045.24,594.857c-0,-28.746 -23.338,-52.084 -52.084,-52.084l-843.131,0c-28.746,0 -52.084,23.338 -52.084,52.084l0,37.37c0,28.745 23.338,52.083 52.084,52.083l843.131,0c28.746,0 52.084,-23.338 52.084,-52.083l-0,-37.37Z" style="fill:#f1f1f1;stroke:#181818;stroke-width:2.08px;"/><text x="139.608px" y="630.851px" style="font-family:'ArialMT', 'Arial', sans-serif;font-size:50px;">Deﬁne Objectives &amp; Requirements</text><rect x="87.5" y="725.977" width="968.18" height="1281.79" style="fill:none;stroke:#000;stroke-width:6.25px;"/><g id="ccs_selection"><path d="M777.157,725.977l-0,38.737l-41.667,41.666l-647.99,0" style="fill:none;fill-rule:nonzero;stroke:#000;stroke-width:6.25px;"/><text x="100px" y="784.29px" style="font-family:'ArialMT', 'Arial', sans-serif;font-size:58.333px;">CCS Selection Process</text></g><rect x="196.472" y="851.388" width="750.236" height="130.404" style="fill:none;stroke:#000;stroke-width:6.25px;"/><path d="M905.042,851.388l-0,38.737l-41.667,41.666l-666.903,0" style="fill:none;fill-rule:nonzero;stroke:#000;stroke-width:6.25px;"/><text x="208.972px" y="909.7px" style="font-family:'ArialMT', 'Arial', sans-serif;font-size:58.333px;">CCS Initial <tspan x="497.506px 536.413px " y="909.7px 909.7px ">As</tspan>sessment</text><rect x="312.028" y="1026.8" width="519.124" height="130.404" style="fill:none;stroke:#000;stroke-width:6.25px;"/><path d="M789.486,1026.8l-0,38.737l-41.667,41.667l-435.791,0" style="fill:none;fill-rule:nonzero;stroke:#000;stroke-width:6.25px;"/><text x="324.528px" y="1085.11px" style="font-family:'ArialMT', 'Arial', sans-serif;font-size:58.333px;">PCF Evaluation</text><rect x="129.167" y="1202.21" width="884.847" height="130.404" style="fill:none;stroke:#000;stroke-width:6.25px;"/><path d="M972.347,1202.21l0,38.736l-41.667,41.667l-801.513,-0" style="fill:none;fill-rule:nonzero;stroke:#000;stroke-width:6.25px;"/><text x="141.667px" y="1260.52px" style="font-family:'ArialMT', 'Arial', sans-serif;font-size:58.333px;">Determine CCS Parameters</text><rect x="184.509" y="1377.62" width="774.162" height="130.404" style="fill:none;stroke:#000;stroke-width:6.25px;"/><path d="M917.005,1377.62l-0,38.737l-41.667,41.667l-690.829,0" style="fill:none;fill-rule:nonzero;stroke:#000;stroke-width:6.25px;"/><g transform="matrix(4.16667,0,0,4.16667,197.009,1435.93)"><text x="0px" y="0px" style="font-family:'ArialMT', 'Arial', sans-serif;font-size:14px;">Evaluate CO</text><text x="79.372px" y="0px" style="font-family:'MicrosoftSansSerif', 'Microsoft Sans Serif', sans-serif;font-size:14px;">₂</text><text x="87.924px" y="0px" style="font-family:'ArialMT', 'Arial', sans-serif;font-size:14px;">Neutrality</text></g><path d="M773.657,1643.44c0,-28.746 -23.338,-52.083 -52.083,-52.083l-299.968,-0c-28.745,-0 -52.083,23.337 -52.083,52.083l-0,37.37c-0,28.745 23.338,52.083 52.083,52.083l299.968,0c28.745,0 52.083,-23.338 52.083,-52.083l0,-37.37Z" style="fill:#f1f1f1;stroke:#181818;stroke-width:2.08px;"/><text x="411.19px" y="1679.43px" style="font-family:'ArialMT', 'Arial', sans-serif;font-size:50px;">CCS Ranking</text><path d="M787.195,1868.31c-0,-28.745 -23.338,-52.083 -52.084,-52.083l-327.042,0c-28.746,0 -52.084,23.338 -52.084,52.083l0,37.37c0,28.746 23.338,52.084 52.084,52.084l327.042,-0c28.746,-0 52.084,-23.338 52.084,-52.084l-0,-37.37Z" style="fill:#f1f1f1;stroke:#181818;stroke-width:2.08px;"/><text x="397.652px" y="1904.31px" style="font-family:'ArialMT', 'Arial', sans-serif;font-size:50px;">CCS Selection</text><path d="M970.91,2143.18c0,-28.745 -23.337,-52.083 -52.083,-52.083l-694.474,0c-28.746,0 -52.083,23.338 -52.083,52.083l-0,37.37c-0,28.746 23.337,52.084 52.083,52.084l694.474,-0c28.746,-0 52.083,-23.338 52.083,-52.084l0,-37.37Z" style="fill:#f1f1f1;stroke:#181818;stroke-width:2.08px;"/><text x="213.936px" y="2179.18px" style="font-family:'ArialMT', 'Arial', sans-serif;font-size:50px;">Update List of Requirements</text><path d="M571.59,459.44l0,83.333" style="fill:none;fill-rule:nonzero;stroke:#181818;stroke-width:4.17px;"/><path d="M554.923,501.107l16.667,41.666l16.667,-41.666l-16.667,16.666l-16.667,-16.666Z" style="fill:#181818;fill-rule:nonzero;stroke:#181818;stroke-width:4.17px;"/><path d="M571.59,684.31l0,907.048" style="fill:none;fill-rule:nonzero;stroke:#181818;stroke-width:4.17px;"/><path d="M554.923,1549.69l16.667,41.667l16.667,-41.667l-16.667,16.667l-16.667,-16.667Z" style="fill:#181818;fill-rule:nonzero;stroke:#181818;stroke-width:4.17px;"/><path d="M571.59,1732.89l0,83.333" style="fill:none;fill-rule:nonzero;stroke:#181818;stroke-width:4.17px;"/><path d="M554.923,1774.56l16.667,41.667l16.667,-41.667l-16.667,16.667l-16.667,-16.667Z" style="fill:#181818;fill-rule:nonzero;stroke:#181818;stroke-width:4.17px;"/><path d="M571.59,1957.76l0,133.333" style="fill:none;fill-rule:nonzero;stroke:#181818;stroke-width:4.17px;"/><path d="M554.923,2049.43l16.667,41.667l16.667,-41.667l-16.667,16.667l-16.667,-16.667Z" style="fill:#181818;fill-rule:nonzero;stroke:#181818;stroke-width:4.17px;"/><path d="M571.59,125l0,192.904" style="fill:none;fill-rule:nonzero;stroke:#181818;stroke-width:4.17px;"/><path d="M554.923,276.237l16.667,41.667l16.667,-41.667l-16.667,16.667l-16.667,-16.667Z" style="fill:#181818;fill-rule:nonzero;stroke:#181818;stroke-width:4.17px;"/></g></svg>