<svg xmlns="http://www.w3.org/2000/svg" xmlns:xlink="http://www.w3.org/1999/xlink" contentStyleType="text/css" data-diagram-type="ACTIVITY" height="1461px" preserveAspectRatio="none" style="width:611px;height:1461px;background:#FFFFFF;" version="1.1" viewBox="0 0 611 1461" width="611px" zoomAndPan="magnify"><defs/><g><ellipse cx="310.8762" cy="20" fill="#222222" rx="10" ry="10" style="stroke:#222222;stroke-width:1;"/><rect fill="none" height="1410.8857" style="stroke:#000000;stroke-width:1.5;" width="589.4155" x="11" y="40"/><path d="M158.2246,40 L158.2246,49.2969 L148.2246,59.2969 L11,59.2969" fill="none" style="stroke:#000000;stroke-width:1.5;"/><text fill="#000000" font-family="sans-serif" font-size="14" lengthAdjust="spacing" textLength="137.2246" x="14" y="53.9951">Requirement Phase</text><rect fill="#F1F1F1" height="33.9688" rx="12.5" ry="12.5" style="stroke:#181818;stroke-width:0.5;" width="206.1055" x="207.8235" y="76.2969"/><text fill="#000000" font-family="sans-serif" font-size="12" lengthAdjust="spacing" textLength="186.1055" x="217.8235" y="97.4355">Clarification of problem or task</text><rect fill="#F1F1F1" height="33.9688" rx="12.5" ry="12.5" style="stroke:#181818;stroke-width:0.5;" width="227.3516" x="197.2004" y="130.2656"/><text fill="#000000" font-family="sans-serif" font-size="12" lengthAdjust="spacing" textLength="207.3516" x="207.2004" y="151.4043">Define Objectives &amp; Requirements</text><rect fill="none" height="1210.6826" style="stroke:#000000;stroke-width:1.5;" width="569.4155" x="21" y="174.2344"/><path d="M186.5176,174.2344 L186.5176,183.5313 L176.5176,193.5313 L21,193.5313" fill="none" style="stroke:#000000;stroke-width:1.5;"/><text fill="#000000" font-family="sans-serif" font-size="14" lengthAdjust="spacing" textLength="155.5176" x="24" y="188.2295">CCS Selection Process</text><rect fill="none" height="935.1523" style="stroke:#000000;stroke-width:1.5;" width="549.4155" x="31" y="203.5313"/><path d="M201.0566,203.5313 L201.0566,212.8281 L191.0566,222.8281 L31,222.8281" fill="none" style="stroke:#000000;stroke-width:1.5;"/><text fill="#000000" font-family="sans-serif" font-size="14" lengthAdjust="spacing" textLength="160.0566" x="34" y="217.5264">CCS Initial Assessment</text><rect fill="#F1F1F1" height="33.9688" rx="12.5" ry="12.5" style="stroke:#181818;stroke-width:0.5;" width="158.791" x="231.4807" y="288.2305"/><text fill="#000000" font-family="sans-serif" font-size="12" lengthAdjust="spacing" textLength="138.791" x="241.4807" y="309.3691">STOP - No CCS feasible</text><ellipse cx="310.8762" cy="361.7148" fill="none" rx="11" ry="11" style="stroke:#222222;stroke-width:1;"/><ellipse cx="310.8762" cy="361.7148" fill="#222222" rx="6" ry="6" style="stroke:#222222;stroke-width:1;"/><polygon fill="#F1F1F1" points="166.853,239.8281,454.8994,239.8281,466.8994,251.8281,454.8994,263.8281,166.853,263.8281,154.853,251.8281,166.853,239.8281" style="stroke:#181818;stroke-width:0.5;"/><text fill="#000000" font-family="sans-serif" font-size="11" lengthAdjust="spacing" textLength="19.2178" x="314.8762" y="274.0386">Yes</text><text fill="#000000" font-family="sans-serif" font-size="11" lengthAdjust="spacing" textLength="288.0464" x="166.853" y="255.6362">Is the product continuously carried or worn by user?</text><text fill="#000000" font-family="sans-serif" font-size="11" lengthAdjust="spacing" textLength="14.9585" x="466.8994" y="249.2339">No</text><rect fill="#F1F1F1" height="33.9688" rx="12.5" ry="12.5" style="stroke:#181818;stroke-width:0.5;" width="158.791" x="231.4807" y="463.1172"/><text fill="#000000" font-family="sans-serif" font-size="12" lengthAdjust="spacing" textLength="138.791" x="241.4807" y="484.2559">STOP - No CCS feasible</text><ellipse cx="310.8762" cy="536.6016" fill="none" rx="11" ry="11" style="stroke:#222222;stroke-width:1;"/><ellipse cx="310.8762" cy="536.6016" fill="#222222" rx="6" ry="6" style="stroke:#222222;stroke-width:1;"/><polygon fill="#F1F1F1" points="84.3369,414.7148,537.4155,414.7148,549.4155,426.7148,537.4155,438.7148,84.3369,438.7148,72.3369,426.7148,84.3369,414.7148" style="stroke:#181818;stroke-width:0.5;"/><text fill="#000000" font-family="sans-serif" font-size="11" lengthAdjust="spacing" textLength="14.9585" x="314.8762" y="448.9253">No</text><text fill="#000000" font-family="sans-serif" font-size="11" lengthAdjust="spacing" textLength="453.0786" x="84.3369" y="430.5229">Does the product design allow for additional volume to integrate CCS technology?</text><text fill="#000000" font-family="sans-serif" font-size="11" lengthAdjust="spacing" textLength="19.2178" x="549.4155" y="424.1206">Yes</text><rect fill="#F1F1F1" height="33.9688" rx="12.5" ry="12.5" style="stroke:#181818;stroke-width:0.5;" width="211.6484" x="205.052" y="638.0039"/><text fill="#000000" font-family="sans-serif" font-size="12" lengthAdjust="spacing" textLength="191.6484" x="215.052" y="659.1426">Exclude Combustion-based CCS</text><polygon fill="#F1F1F1" points="176.7654,589.6016,444.9871,589.6016,456.9871,601.6016,444.9871,613.6016,176.7654,613.6016,164.7654,601.6016,176.7654,589.6016" style="stroke:#181818;stroke-width:0.5;"/><text fill="#000000" font-family="sans-serif" font-size="11" lengthAdjust="spacing" textLength="14.9585" x="314.8762" y="623.812">No</text><text fill="#000000" font-family="sans-serif" font-size="11" lengthAdjust="spacing" textLength="268.2217" x="176.7654" y="605.4097">Does the product involve a combustion process?</text><text fill="#000000" font-family="sans-serif" font-size="11" lengthAdjust="spacing" textLength="19.2178" x="456.9871" y="599.0073">Yes</text><polygon fill="#F1F1F1" points="310.8762,691.9727,322.8762,703.9727,310.8762,715.9727,298.8762,703.9727,310.8762,691.9727" style="stroke:#181818;stroke-width:0.5;"/><polygon fill="#F1F1F1" points="194.0254,735.9727,427.7271,735.9727,439.7271,747.9727,427.7271,759.9727,194.0254,759.9727,182.0254,747.9727,194.0254,735.9727" style="stroke:#181818;stroke-width:0.5;"/><text fill="#000000" font-family="sans-serif" font-size="11" lengthAdjust="spacing" textLength="233.7017" x="194.0254" y="751.7808">Is a constant humidity level maintainable?</text><text fill="#000000" font-family="sans-serif" font-size="11" lengthAdjust="spacing" textLength="19.2178" x="162.8076" y="745.3784">Yes</text><text fill="#000000" font-family="sans-serif" font-size="11" lengthAdjust="spacing" textLength="14.9585" x="439.7271" y="745.3784">No</text><rect fill="#F1F1F1" height="33.9688" rx="12.5" ry="12.5" style="stroke:#181818;stroke-width:0.5;" width="157.0449" x="93.5029" y="818.375"/><text fill="#000000" font-family="sans-serif" font-size="12" lengthAdjust="spacing" textLength="137.0449" x="103.5029" y="839.5137">Exclude Biological CCS</text><polygon fill="#F1F1F1" points="55,769.9727,289.0508,769.9727,301.0508,781.9727,289.0508,793.9727,55,793.9727,43,781.9727,55,769.9727" style="stroke:#181818;stroke-width:0.5;"/><text fill="#000000" font-family="sans-serif" font-size="11" lengthAdjust="spacing" textLength="14.9585" x="176.0254" y="804.1831">No</text><text fill="#000000" font-family="sans-serif" font-size="11" lengthAdjust="spacing" textLength="234.0508" x="55" y="785.7808">Operating Temp. in Range of 20&#176;C - 50&#176;C?</text><text fill="#000000" font-family="sans-serif" font-size="11" lengthAdjust="spacing" textLength="19.2178" x="301.0508" y="779.3784">Yes</text><polygon fill="#F1F1F1" points="172.0254,872.3438,184.0254,884.3438,172.0254,896.3438,160.0254,884.3438,172.0254,872.3438" style="stroke:#181818;stroke-width:0.5;"/><rect fill="#F1F1F1" height="33.9688" rx="12.5" ry="12.5" style="stroke:#181818;stroke-width:0.5;" width="157.0449" x="371.2046" y="769.9727"/><text fill="#000000" font-family="sans-serif" font-size="12" lengthAdjust="spacing" textLength="137.0449" x="381.2046" y="791.1113">Exclude Biological CCS</text><polygon fill="#F1F1F1" points="310.8762,902.3438,322.8762,914.3438,310.8762,926.3438,298.8762,914.3438,310.8762,902.3438" style="stroke:#181818;stroke-width:0.5;"/><rect fill="#F1F1F1" height="33.9688" rx="12.5" ry="12.5" style="stroke:#181818;stroke-width:0.5;" width="156.3535" x="232.6995" y="994.7461"/><text fill="#000000" font-family="sans-serif" font-size="12" lengthAdjust="spacing" textLength="136.3535" x="242.6995" y="1015.8848">Exclude Chemical DAC</text><polygon fill="#F1F1F1" points="165.7734,946.3438,455.979,946.3438,467.979,958.3438,455.979,970.3438,165.7734,970.3438,153.7734,958.3438,165.7734,946.3438" style="stroke:#181818;stroke-width:0.5;"/><text fill="#000000" font-family="sans-serif" font-size="11" lengthAdjust="spacing" textLength="19.2178" x="314.8762" y="980.5542">Yes</text><text fill="#000000" font-family="sans-serif" font-size="11" lengthAdjust="spacing" textLength="290.2056" x="165.7734" y="962.1519">Are there strict safety requirements for the product?</text><text fill="#000000" font-family="sans-serif" font-size="11" lengthAdjust="spacing" textLength="14.9585" x="467.979" y="955.7495">No</text><polygon fill="#F1F1F1" points="310.8762,1048.7148,322.8762,1060.7148,310.8762,1072.7148,298.8762,1060.7148,310.8762,1048.7148" style="stroke:#181818;stroke-width:0.5;"/><rect fill="#F1F1F1" height="33.9688" rx="12.5" ry="12.5" style="stroke:#181818;stroke-width:0.5;" width="216.8926" x="202.4299" y="1092.7148"/><text fill="#000000" font-family="sans-serif" font-size="12" lengthAdjust="spacing" textLength="196.8926" x="212.4299" y="1113.8535">Filtered List of CCS Technologies</text><rect fill="none" height="31.2969" style="stroke:#000000;stroke-width:1.5;" width="124.5898" x="248.5813" y="1149.4854"/><path d="M363.1711,1149.4854 L363.1711,1158.7822 L353.1711,1168.7822 L248.5813,1168.7822" fill="none" style="stroke:#000000;stroke-width:1.5;"/><text fill="#000000" font-family="sans-serif" font-size="14" lengthAdjust="spacing" textLength="104.5898" x="251.5813" y="1163.4805">PCF Evaluation</text><rect fill="none" height="31.2969" style="stroke:#000000;stroke-width:1.5;" width="212.3633" x="204.6946" y="1191.584"/><path d="M407.0579,1191.584 L407.0579,1200.8809 L397.0579,1210.8809 L204.6946,1210.8809" fill="none" style="stroke:#000000;stroke-width:1.5;"/><text fill="#000000" font-family="sans-serif" font-size="14" lengthAdjust="spacing" textLength="192.3633" x="207.6946" y="1205.5791">Determine CCS Parameters</text><rect fill="none" height="31.2969" style="stroke:#000000;stroke-width:1.5;" width="185.7988" x="217.9768" y="1233.6826"/><path d="M393.7756,1233.6826 L393.7756,1242.9795 L383.7756,1252.9795 L217.9768,1252.9795" fill="none" style="stroke:#000000;stroke-width:1.5;"/><text fill="#000000" font-family="sans-serif" font-size="14" lengthAdjust="spacing" textLength="165.7988" x="220.9768" y="1247.6777">Evaluate CO&#8322; Neutrality</text><rect fill="#F1F1F1" height="33.9688" rx="12.5" ry="12.5" style="stroke:#181818;stroke-width:0.5;" width="96.9922" x="262.3801" y="1284.9795"/><text fill="#000000" font-family="sans-serif" font-size="12" lengthAdjust="spacing" textLength="76.9922" x="272.3801" y="1306.1182">CCS Ranking</text><rect fill="#F1F1F1" height="33.9688" rx="12.5" ry="12.5" style="stroke:#181818;stroke-width:0.5;" width="103.4902" x="259.1311" y="1338.9482"/><text fill="#000000" font-family="sans-serif" font-size="12" lengthAdjust="spacing" textLength="83.4902" x="269.1311" y="1360.0869">CCS Selection</text><rect fill="#F1F1F1" height="33.9688" rx="12.5" ry="12.5" style="stroke:#181818;stroke-width:0.5;" width="191.6738" x="215.0393" y="1404.917"/><text fill="#000000" font-family="sans-serif" font-size="12" lengthAdjust="spacing" textLength="171.6738" x="225.0393" y="1426.0557">Update List of Requirements</text><line style="stroke:#181818;stroke-width:1;" x1="310.8762" x2="310.8762" y1="110.2656" y2="130.2656"/><polygon fill="#181818" points="306.8762,120.2656,310.8762,130.2656,314.8762,120.2656,310.8762,124.2656" style="stroke:#181818;stroke-width:1;"/><line style="stroke:#181818;stroke-width:1;" x1="310.8762" x2="310.8762" y1="322.1992" y2="350.7148"/><polygon fill="#181818" points="306.8762,340.7148,310.8762,350.7148,314.8762,340.7148,310.8762,344.7148" style="stroke:#181818;stroke-width:1;"/><line style="stroke:#181818;stroke-width:1;" x1="310.8762" x2="310.8762" y1="263.8281" y2="288.2305"/><polygon fill="#181818" points="306.8762,278.2305,310.8762,288.2305,314.8762,278.2305,310.8762,282.2305" style="stroke:#181818;stroke-width:1;"/><line style="stroke:#181818;stroke-width:1;" x1="466.8994" x2="478.8994" y1="251.8281" y2="251.8281"/><polygon fill="#181818" points="474.8994,320.7148,478.8994,330.7148,482.8994,320.7148,478.8994,324.7148" style="stroke:#181818;stroke-width:1;"/><line style="stroke:#181818;stroke-width:1;" x1="478.8994" x2="478.8994" y1="251.8281" y2="394.7148"/><line style="stroke:#181818;stroke-width:1;" x1="478.8994" x2="310.8762" y1="394.7148" y2="394.7148"/><line style="stroke:#181818;stroke-width:1;" x1="310.8762" x2="310.8762" y1="394.7148" y2="414.7148"/><polygon fill="#181818" points="306.8762,404.7148,310.8762,414.7148,314.8762,404.7148,310.8762,408.7148" style="stroke:#181818;stroke-width:1;"/><line style="stroke:#181818;stroke-width:1;" x1="310.8762" x2="310.8762" y1="497.0859" y2="525.6016"/><polygon fill="#181818" points="306.8762,515.6016,310.8762,525.6016,314.8762,515.6016,310.8762,519.6016" style="stroke:#181818;stroke-width:1;"/><line style="stroke:#181818;stroke-width:1;" x1="310.8762" x2="310.8762" y1="438.7148" y2="463.1172"/><polygon fill="#181818" points="306.8762,453.1172,310.8762,463.1172,314.8762,453.1172,310.8762,457.1172" style="stroke:#181818;stroke-width:1;"/><line style="stroke:#181818;stroke-width:1;" x1="549.4155" x2="561.4155" y1="426.7148" y2="426.7148"/><polygon fill="#181818" points="557.4155,495.6016,561.4155,505.6016,565.4155,495.6016,561.4155,499.6016" style="stroke:#181818;stroke-width:1;"/><line style="stroke:#181818;stroke-width:1;" x1="561.4155" x2="561.4155" y1="426.7148" y2="569.6016"/><line style="stroke:#181818;stroke-width:1;" x1="561.4155" x2="310.8762" y1="569.6016" y2="569.6016"/><line style="stroke:#181818;stroke-width:1;" x1="310.8762" x2="310.8762" y1="569.6016" y2="589.6016"/><polygon fill="#181818" points="306.8762,579.6016,310.8762,589.6016,314.8762,579.6016,310.8762,583.6016" style="stroke:#181818;stroke-width:1;"/><line style="stroke:#181818;stroke-width:1;" x1="310.8762" x2="310.8762" y1="613.6016" y2="638.0039"/><polygon fill="#181818" points="306.8762,628.0039,310.8762,638.0039,314.8762,628.0039,310.8762,632.0039" style="stroke:#181818;stroke-width:1;"/><line style="stroke:#181818;stroke-width:1;" x1="456.9871" x2="468.9871" y1="601.6016" y2="601.6016"/><polygon fill="#181818" points="464.9871,644.9883,468.9871,654.9883,472.9871,644.9883,468.9871,648.9883" style="stroke:#181818;stroke-width:1;"/><line style="stroke:#181818;stroke-width:1;" x1="468.9871" x2="468.9871" y1="601.6016" y2="703.9727"/><line style="stroke:#181818;stroke-width:1;" x1="468.9871" x2="322.8762" y1="703.9727" y2="703.9727"/><polygon fill="#181818" points="332.8762,699.9727,322.8762,703.9727,332.8762,707.9727,328.8762,703.9727" style="stroke:#181818;stroke-width:1;"/><line style="stroke:#181818;stroke-width:1;" x1="310.8762" x2="310.8762" y1="671.9727" y2="691.9727"/><polygon fill="#181818" points="306.8762,681.9727,310.8762,691.9727,314.8762,681.9727,310.8762,685.9727" style="stroke:#181818;stroke-width:1;"/><line style="stroke:#181818;stroke-width:1;" x1="172.0254" x2="172.0254" y1="793.9727" y2="818.375"/><polygon fill="#181818" points="168.0254,808.375,172.0254,818.375,176.0254,808.375,172.0254,812.375" style="stroke:#181818;stroke-width:1;"/><line style="stroke:#181818;stroke-width:1;" x1="301.0508" x2="313.0508" y1="781.9727" y2="781.9727"/><polygon fill="#181818" points="309.0508,825.3594,313.0508,835.3594,317.0508,825.3594,313.0508,829.3594" style="stroke:#181818;stroke-width:1;"/><line style="stroke:#181818;stroke-width:1;" x1="313.0508" x2="313.0508" y1="781.9727" y2="884.3438"/><line style="stroke:#181818;stroke-width:1;" x1="313.0508" x2="184.0254" y1="884.3438" y2="884.3438"/><polygon fill="#181818" points="194.0254,880.3438,184.0254,884.3438,194.0254,888.3438,190.0254,884.3438" style="stroke:#181818;stroke-width:1;"/><line style="stroke:#181818;stroke-width:1;" x1="172.0254" x2="172.0254" y1="852.3438" y2="872.3438"/><polygon fill="#181818" points="168.0254,862.3438,172.0254,872.3438,176.0254,862.3438,172.0254,866.3438" style="stroke:#181818;stroke-width:1;"/><line style="stroke:#181818;stroke-width:1;" x1="182.0254" x2="172.0254" y1="747.9727" y2="747.9727"/><line style="stroke:#181818;stroke-width:1;" x1="172.0254" x2="172.0254" y1="747.9727" y2="769.9727"/><polygon fill="#181818" points="168.0254,759.9727,172.0254,769.9727,176.0254,759.9727,172.0254,763.9727" style="stroke:#181818;stroke-width:1;"/><line style="stroke:#181818;stroke-width:1;" x1="439.7271" x2="449.7271" y1="747.9727" y2="747.9727"/><line style="stroke:#181818;stroke-width:1;" x1="449.7271" x2="449.7271" y1="747.9727" y2="769.9727"/><polygon fill="#181818" points="445.7271,759.9727,449.7271,769.9727,453.7271,759.9727,449.7271,763.9727" style="stroke:#181818;stroke-width:1;"/><line style="stroke:#181818;stroke-width:1;" x1="172.0254" x2="172.0254" y1="896.3438" y2="914.3438"/><line style="stroke:#181818;stroke-width:1;" x1="172.0254" x2="298.8762" y1="914.3438" y2="914.3438"/><polygon fill="#181818" points="288.8762,910.3438,298.8762,914.3438,288.8762,918.3438,292.8762,914.3438" style="stroke:#181818;stroke-width:1;"/><line style="stroke:#181818;stroke-width:1;" x1="449.7271" x2="449.7271" y1="803.9414" y2="914.3438"/><line style="stroke:#181818;stroke-width:1;" x1="449.7271" x2="322.8762" y1="914.3438" y2="914.3438"/><polygon fill="#181818" points="332.8762,910.3438,322.8762,914.3438,332.8762,918.3438,328.8762,914.3438" style="stroke:#181818;stroke-width:1;"/><line style="stroke:#181818;stroke-width:1;" x1="310.8762" x2="310.8762" y1="715.9727" y2="735.9727"/><polygon fill="#181818" points="306.8762,725.9727,310.8762,735.9727,314.8762,725.9727,310.8762,729.9727" style="stroke:#181818;stroke-width:1;"/><line style="stroke:#181818;stroke-width:1;" x1="310.8762" x2="310.8762" y1="970.3438" y2="994.7461"/><polygon fill="#181818" points="306.8762,984.7461,310.8762,994.7461,314.8762,984.7461,310.8762,988.7461" style="stroke:#181818;stroke-width:1;"/><line style="stroke:#181818;stroke-width:1;" x1="467.979" x2="479.979" y1="958.3438" y2="958.3438"/><polygon fill="#181818" points="475.979,1001.7305,479.979,1011.7305,483.979,1001.7305,479.979,1005.7305" style="stroke:#181818;stroke-width:1;"/><line style="stroke:#181818;stroke-width:1;" x1="479.979" x2="479.979" y1="958.3438" y2="1060.7148"/><line style="stroke:#181818;stroke-width:1;" x1="479.979" x2="322.8762" y1="1060.7148" y2="1060.7148"/><polygon fill="#181818" points="332.8762,1056.7148,322.8762,1060.7148,332.8762,1064.7148,328.8762,1060.7148" style="stroke:#181818;stroke-width:1;"/><line style="stroke:#181818;stroke-width:1;" x1="310.8762" x2="310.8762" y1="1028.7148" y2="1048.7148"/><polygon fill="#181818" points="306.8762,1038.7148,310.8762,1048.7148,314.8762,1038.7148,310.8762,1042.7148" style="stroke:#181818;stroke-width:1;"/><line style="stroke:#181818;stroke-width:1;" x1="310.8762" x2="310.8762" y1="926.3438" y2="946.3438"/><polygon fill="#181818" points="306.8762,936.3438,310.8762,946.3438,314.8762,936.3438,310.8762,940.3438" style="stroke:#181818;stroke-width:1;"/><line style="stroke:#181818;stroke-width:1;" x1="310.8762" x2="310.8762" y1="1072.7148" y2="1092.7148"/><polygon fill="#181818" points="306.8762,1082.7148,310.8762,1092.7148,314.8762,1082.7148,310.8762,1086.7148" style="stroke:#181818;stroke-width:1;"/><line style="stroke:#181818;stroke-width:1;" x1="310.8762" x2="310.8762" y1="1126.6836" y2="1284.9795"/><polygon fill="#181818" points="306.8762,1274.9795,310.8762,1284.9795,314.8762,1274.9795,310.8762,1278.9795" style="stroke:#181818;stroke-width:1;"/><line style="stroke:#181818;stroke-width:1;" x1="310.8762" x2="310.8762" y1="1318.9482" y2="1338.9482"/><polygon fill="#181818" points="306.8762,1328.9482,310.8762,1338.9482,314.8762,1328.9482,310.8762,1332.9482" style="stroke:#181818;stroke-width:1;"/><line style="stroke:#181818;stroke-width:1;" x1="310.8762" x2="310.8762" y1="164.2344" y2="239.8281"/><polygon fill="#181818" points="306.8762,229.8281,310.8762,239.8281,314.8762,229.8281,310.8762,233.8281" style="stroke:#181818;stroke-width:1;"/><line style="stroke:#181818;stroke-width:1;" x1="310.8762" x2="310.8762" y1="1372.917" y2="1404.917"/><polygon fill="#181818" points="306.8762,1394.917,310.8762,1404.917,314.8762,1394.917,310.8762,1398.917" style="stroke:#181818;stroke-width:1;"/><line style="stroke:#181818;stroke-width:1;" x1="310.8762" x2="310.8762" y1="30" y2="76.2969"/><polygon fill="#181818" points="306.8762,66.2969,310.8762,76.2969,314.8762,66.2969,310.8762,70.2969" style="stroke:#181818;stroke-width:1;"/><!--SRC=[bLJBZjem55sNhxXYqSuigAfAtS2Yec566ga2DD15boQv0NSSE_LrcAAApNnHlw6VqY-PQoUafeGHHP27EJxtdFimEM5Th_S61lo1U_nUIOi5QWVpZI0CoxsICT99ew5_WkZ_x04C4oMip6Kg0ihaK5gpKbY0iU04FOmyQ8Avr0YprJTCdTmYmUiu8daGVnijIRA01IeFPSgvDIaIrNe08aMTkA3gYEfECrue61Fn_q5_mmKdTAVOFjI403A7gpi2jq7lCQjI1wdHJkhALAHsa0fh9MRU-AEn6bOxg0Zjnsk_HSFLLwJhXefJibZEvZ20gGaQSnGaEMsZ5a3EbCqBAYx7rTGSTgFEP1wU8sKJWyVQCYIvrY2KCe-GioYHPS4fsziQLHK8pe3K3jTME0mo7AORRPHPxxfK_wlZFrrSf5fgrhP549pRObLHA4rPb_P2JJS_KbLbRAWb6AouNJClSVII62wk3wl92UwHJLL8JjWE56vHGI4uLVmJxA-xf9vYLY8dK-erBB4etx8Tk1TwZNumth_x_IlXP7tmzswAKpUHdq_ILuOdJSLEOYylfgDxUsSYnXQzEhwIivAhGY97peIDHZQqL5IvCstU5cE3HOWz6IUZI_jwU2kLOnaPV9RaV0vzboqFJIgHQgfzx- -kPl3doItSR8MgwdEf7VXeteyXxPpNrtsie-6S88if_47cPSo55OLVeUWuYVdFmNsaL_i6VnoXaSCxPd-Udc2AbRD2-IRi3d4MNxjfemoz0cx41-xCKRpM7f-ZMCy-t8TVoinp7t9_V63ldm40]--></g></svg>